<?xml version="1.0" encoding="UTF-8"?>
<svg width="2436px" height="2524px" viewBox="0 0 2436 2524" version="1.1" xmlns="http://www.w3.org/2000/svg" xmlns:xlink="http://www.w3.org/1999/xlink">
    <title>fiven_funnel</title>
    <g id="v3" stroke="none" stroke-width="1" fill="none" fill-rule="evenodd">
        <path d="M769.950467,694.619001 L842.883172,763.798213 L907.70545,838.800768 L962.970466,918.882538 L1007.23139,1003.29939 L1039.63743,1091.26398 L1059.31235,1181.98586 L1065.95047,1274.619 M446.184842,519.923101 L520.428211,548.4297 L595.154736,581.151042 L670.893347,622.295699 L745.309634,671.403939 L816.089533,728.037624 L881.397047,791.647542 L939.452126,861.693738 L988.947705,937.531349 L1028.5818,1018.54328 L1057.61189,1103.98903 L1075.21913,1193.14967 L1081.18484,1285.21682 L1075.21913,1379.37591 L1057.61189,1474.7044 L1028.5818,1570.31675 L988.947705,1665.2071 L939.452126,1758.39118 L881.397047,1848.7675 L816.089533,1935.25304 L745.309634,2016.67843 L670.893347,2091.85267 L595.154736,2159.52306 L520.428211,2218.41839 L446.184842,2272.9231 M709.482114,626.167946 L771.262817,661.829717 L831.985962,705.571324 L889.719472,757.096487 L943.004121,815.98856 L990.355259,881.843243 L1030.7255,954.126612 L1063.06745,1032.28005 L1086.73539,1115.65545 L1101.10903,1203.56149 L1105.96464,1295.22041 L1101.10903,1389.83598 L1086.73539,1486.46688 L1063.06745,1584.20884 L1030.7255,1681.99091 L990.355259,1778.7823 L943.004121,1873.37935 L889.719472,1964.62472 L831.985962,2051.18514 L771.262817,2131.77673 L709.482114,2204.94894 L648.514918,2269.27284 L587.964643,2329.16795 M773.37584,618.539724 L816.289664,637.524582 L859.478413,660.662474 L903.247561,692.097178 L946.258118,731.665164 L987.166005,779.2245 L1024.91225,834.46047 L1058.46843,897.058357 L1087.06576,966.558426 L1109.98131,1042.48551 L1126.75176,1124.20711 L1136.93418,1211.11536 L1140.37584,1302.42349 L1136.93418,1397.3416 L1126.75176,1494.93482 L1109.98131,1594.26824 L1087.06576,1694.23726 L1058.46843,1793.76506 L1024.91225,1891.57734 L987.166005,1986.43992 L946.258118,2076.93966 L903.247561,2161.65723 L859.478413,2239.04066 L816.289664,2307.51327 L773.37584,2371.53972 M987.215241,646.633935 L1009.41953,663.039345 L1031.78685,683.573105 L1054.45988,712.366652 L1076.72022,749.358276 L1097.8953,794.452327 L1117.44505,847.417396 L1134.80903,907.991218 L1149.62038,975.766513 L1161.47659,1050.31749 L1170.16877,1131.03013 L1175.43197,1217.32438 L1177.21524,1308.4196 L1175.43197,1403.54753 L1170.16877,1501.75784 L1161.47659,1602.09403 L1149.62038,1703.4546 L1134.80903,1804.69792 L1117.44505,1904.53427 L1097.8953,2001.66775 L1076.72022,2094.62351 L1054.45988,2181.93596 L1031.78685,2261.95438 L1009.41953,2333.02803 L987.215241,2399.63393 M746.951065,671.703339 L771.761831,694.479992 L817.780075,728.40556 L891.596555,757.465641 L987.333028,779.862323 L1099.12652,793.828585 L1218.95107,798.703339 M357.523898,455.732288 L439.929996,490.308702 L522.893268,529.108635 L606.975954,576.367873 L616.523898,582.732288 M1217.28119,850.681524 L1117.07293,846.615095 L1023.56657,834.954921 L943.504711,816.255512 L881.758684,792.001732 L843.281192,763.681524 M909.201065,838.200416 L940.888704,861.64242 L991.731718,881.708701 L1057.67421,897.184617 L1134.67041,906.830859 L1217.20107,910.200416 M1054.37961,1168.58335 L1060.03174,1181.26191 L1076.20816,1193.08183 L1102.18464,1203.20884 L1135.87455,1211.01572 L1175.21152,1215.88131 L1217.37961,1217.58335 M1218.30653,1131.63626 L1170.45756,1129.69252 L1125.80397,1124.13059 L1087.56672,1115.21665 L1058.0976,1103.6409 L1039.72286,1090.12451 L1033.30653,1075.63626 M1217.48199,1309.36579 L1176.87869,1307.71381 L1138.9989,1303.00135 L1106.55596,1295.42565 L1081.55561,1285.60622 L1065.95775,1274.14098 L1059.32459,1367.68754 L1039.66436,1461.42827 L1007.28251,1554.48787 L963.054637,1645.92631 L907.830883,1734.82205 L843.057004,1820.20117 L770.178755,1901.06816 L691.217136,1976.42751 L608.18806,2045.24366 L523.682685,2106.44712 L440.302352,2158.96536 L357.481994,2207.14098 M1217.1425,1706.07012 L1149.11291,1703.30404 L1085.63488,1695.35195 L1031.28029,1682.60325 L989.376464,1666.06549 L963.255784,1646.76164 L954.142501,1626.07012 M1000.55524,985.622176 L1008.07876,1002.69316 L1029.62453,1018.62835 L1064.20837,1032.26415 L1109.05524,1042.78576 L1161.42055,1049.34131 L1217.55524,1051.62218 M987.150048,125.38962 L1009.23368,191.899085 L1031.47946,262.872914 L1054.02929,342.77239 L1076.16867,429.958421 L1097.22869,522.779594 L1116.67221,619.772436 L1122.15005,651.38962 M971.48885,643.89245 L1024.36717,631.997304 L1117.58731,620.800306 L1217.48885,616.89245 M588.671265,195.033559 L649.234032,254.884384 L710.213806,319.160722 L772.007255,392.278836 L832.742928,472.81084 L890.488349,559.307264 L937.671265,640.033559 M772.022517,151.932905 L814.922014,215.808441 L858.096344,284.122941 L901.850879,361.327685 L944.847077,445.84964 L985.741306,536.140404 L1023.47495,630.783938 L1029.02252,646.932905 M1216.52252,183.359221 L1008.31581,191.813587 L814.079808,216.068167 L647.713953,254.971218 L519.468517,305.438037 L439.522517,364.359221 M627.58504,594.146316 L815.566289,638.315009 L1009.59767,662.660323 L1217.58504,671.146316 M440.250978,364.671399 L412.2678,427.959681 L440.250978,491.251056 L520.43335,550.294128 L588.2678,577.671399 M1216.96867,337.124248 L1053.79424,343.761235 L901.534064,362.788499 L771.143098,393.309987 L670.625126,432.900169 L607.968669,479.124248 M670.969014,623.684446 L771.42378,663.363083 L901.732756,693.966123 L1053.89719,713.031073 L1216.96901,719.684446 M607.83221,478.791889 L586.83221,528.296519 L607.83221,577.791889 M1217.53729,690.078385 L1032.07106,682.556087 L859.03729,661.003644 L710.84307,626.429356 L596.594366,581.578385 L525.381914,529.205117 L500.53729,473.078385 M500.068034,473.265609 L524.912658,417.129655 L596.12511,364.765609 L710.373814,319.914639 L858.568034,285.334203 L1031.6018,263.781759 L1217.06803,256.265609 M445.993407,250.575555 L520.153279,305.059818 L594.795764,363.936382 L670.449197,431.585208 L744.781794,506.738576 L815.482091,588.134931 L845.993407,628.575555 M774.290466,618.941833 L816.76428,587.777329 L890.462114,558.908349 L986.04471,536.658949 L1097.65851,522.78453 L1217.29047,517.941833 M358.58221,316.237098 L441.145371,364.437576 L524.266769,416.982911 L608.509715,478.217963 L691.280946,547.069621 L765.58221,618.237098 M1216.47958,116.290002 L986.523217,125.611023 L771.969417,152.332104 L588.235977,195.192816 L446.570017,250.79615 L358.284697,315.70821 L327.479577,385.290002 M676.691573,596.452329 L673.420053,589.061831 L587.598533,527.14335 L500.237773,472.935089 L414.035253,427.291691 L328.432173,385.939946 L359.237293,455.51946 L447.522613,520.435335 L589.188573,576.039305 L772.922013,618.900507 L987.475813,645.618819 L1217.43217,654.939946 M1218.72734,753.815844 L1077.7513,748.137224 L946.216077,731.842588 L833.582836,705.712975 L746.727345,671.815844 M718.964134,630.114284 L672.005856,590.448817 L690.89197,547.686319 L745.020965,507.783094 L831.873676,473.616942 L944.503312,447.265931 L1076.03433,430.848269 L1217.00586,425.114284 M1053.97323,1355.87947 L1059.62535,1368.5543 L1075.80177,1380.38556 L1101.77825,1390.51446 L1135.46816,1398.32279 L1174.80513,1403.18624 L1216.97323,1404.87947 M1007.51985,1520.65412 L999.99633,1537.50314 L1007.51985,1554.35825 L1029.06562,1570.0771 L1063.64946,1583.54779 L1108.49633,1593.92954 L1160.86165,1600.39377 L1216.99633,1602.65412 M1218.2258,1503.49644 L1170.37683,1501.55569 L1125.72325,1495.99345 L1087.48599,1487.06664 L1058.01688,1475.49025 L1039.64214,1461.97621 L1033.2258,1447.49644 M907.481824,1685.20152 L896.350849,1710.27591 L907.481824,1735.34723 L939.361752,1758.74179 L990.513295,1778.7767 L1056.85594,1794.22129 L1134.31938,1803.84801 L1217.35085,1807.20152 M771.694892,1828.9954 L755.66114,1865.36933 L771.694892,1901.74017 L817.690189,1935.68237 L891.469862,1964.74875 L987.158597,1987.1503 L1098.89634,2001.11959 L1218.66114,2005.9954 M1217.74702,1907.23003 L1117.64715,1903.18033 L1024.24194,1891.57693 L944.266682,1872.96856 L882.587446,1848.83592 L844.151575,1820.65359 L830.74702,1790.44181 L844.151575,1760.23003 M608.380731,1945.72359 L586.556368,1995.24494 L608.380731,2044.77556 L670.952374,2090.98272 L771.334281,2130.55841 L901.548746,2161.06873 L1053.60282,2180.08903 L1216.55637,2186.72359 M692.384608,1891.28903 L596.384608,1942.28903 M1216.84321,2098.83257 L1075.87168,2093.1289 L944.340665,2076.79803 L831.71103,2050.58632 L744.858319,2016.60386 L690.729323,1976.90851 L671.84321,1934.37515 L690.729323,1891.83257 M964.509722,919.366423 L990.539175,938.897453 L1032.29665,955.62717 L1086.4614,968.520714 L1149.71773,976.555731 L1217.50972,979.366423 M327.132629,2138.45513 L412.925829,2096.97562 L499.319799,2051.19119 L586.874583,1996.81544 L672.886707,1934.70872 L754.703616,1865.71291 L830.202242,1790.70996 L897.295162,1710.5448 L954.516084,1626.08399 L1000.33253,1538.17863 L1033.87899,1447.7045 L1054.24922,1355.50348 L1061.13263,1262.44517 L1054.24922,1169.38378 L1033.87899,1077.18275 L1000.33253,986.708626 L963.649845,919.455133 M520.194274,1976.51653 L440.23841,2035.23829 L412.334281,2098.18525 L440.23841,2161.12912 L520.194274,2219.85089 L648.455534,2270.1469 L814.841917,2308.91828 L1009.10189,2333.09078 L1217.33428,2341.51653 M1033.70477,1447.04419 L1007.74225,1520.46728 L963.566316,1604.78295 L908.40741,1684.76873 L843.709592,1759.68138 L770.91692,1828.77767 L692.048023,1891.36678 L609.116444,1946.74867 L524.7103,1994.26644 L441.427877,2033.27862 L358.704771,2068.04419 M1216.86314,2269.22061 L1031.34662,2261.66676 L858.265938,2239.99428 L710.031538,2205.2262 L595.751858,2160.13185 L524.520098,2107.48367 L499.668738,2051.0431 L524.520098,1994.61181 L595.751858,1941.95435 L521.111418,1974.73197 L446.953578,2003.2876 L358.668258,2068.55232 L327.863138,2138.50573 L358.668258,2208.46224 L446.953578,2273.72695 L588.619538,2329.62663 L772.352978,2372.72125 L986.906778,2399.58313 L1216.86314,2408.95435 M1368.05163,1274.5606 L1374.68975,1181.92745 L1394.36466,1091.20558 L1426.77071,1003.24099 L1471.03163,918.824134 L1526.29664,838.742364 L1591.11892,763.739809 L1664.05163,694.560596 M1988.01478,2273.59863 L1913.77142,2219.09392 L1839.04489,2160.19859 L1763.30628,2092.5282 L1688.88999,2017.35396 L1618.11009,1935.92858 L1552.80258,1849.44303 L1494.7475,1759.06672 L1445.25192,1665.88263 L1405.61782,1570.99228 L1376.58774,1475.37993 L1358.9805,1380.05145 L1353.01478,1285.89235 L1358.9805,1193.8252 L1376.58774,1104.66456 L1405.61782,1019.21882 L1445.25192,938.206882 L1494.7475,862.369271 L1552.80258,792.323076 L1618.11009,728.713157 L1688.88999,672.079472 L1763.30628,622.971233 L1839.04489,581.826575 L1913.77142,549.105233 L1988.01478,520.598634 M1847.45295,2329.46337 L1786.90268,2269.56826 L1725.93548,2205.24437 L1664.15478,2132.07215 L1603.43163,2051.48056 L1545.69812,1964.92014 L1492.41347,1873.67477 L1445.06234,1779.07772 L1404.6921,1682.28634 L1372.35014,1584.50426 L1348.6822,1486.76231 L1334.30857,1390.13141 L1329.45295,1295.51584 L1334.30857,1203.85691 L1348.6822,1115.95088 L1372.35014,1032.57548 L1404.6921,954.422037 L1445.06234,882.138668 L1492.41347,816.283985 L1545.69812,757.391912 L1603.43163,705.866749 L1664.15478,662.125142 L1725.93548,626.463371 M1662.31932,2371.57235 L1619.4055,2307.5459 L1576.21675,2239.07329 L1532.4476,2161.68986 L1489.43704,2076.97229 L1448.52916,1986.47255 L1410.78291,1891.60997 L1377.22674,1793.79769 L1348.6294,1694.26989 L1325.71386,1594.30087 L1308.94341,1494.96745 L1298.76098,1397.37423 L1295.31932,1302.45612 L1298.76098,1211.14799 L1308.94341,1124.23974 L1325.71386,1042.51815 L1348.6294,966.591056 L1377.22674,897.090987 L1410.78291,834.493101 L1448.52916,779.257131 L1489.43704,731.697794 L1532.4476,692.129808 L1576.21675,660.695104 L1619.4055,637.557213 L1662.31932,618.572355 M1448.23121,2399.04736 L1426.02693,2332.44146 L1403.6596,2261.36781 L1380.98657,2181.34939 L1358.72624,2094.03694 L1337.55115,2001.08118 L1318.0014,1903.9477 L1300.63742,1804.11135 L1285.82607,1702.86803 L1273.96986,1601.50746 L1265.27768,1501.17127 L1260.01958,1402.96096 L1258.23121,1307.83303 L1260.01958,1216.73781 L1265.27768,1130.44356 L1273.96986,1049.73091 L1285.82607,975.179942 L1300.63742,907.404648 L1318.0014,846.830825 L1337.55115,793.865756 L1358.72624,748.771705 L1380.98657,711.780082 L1403.6596,682.986535 L1426.02693,662.452774 L1448.23121,646.047364 M1217.57611,2408.08584 L1217.57611,2340.57281 L1217.57611,2268.59203 L1217.57611,2187.66032 L1217.57611,2099.45 L1217.57611,2005.63339 L1217.57611,1907.70694 L1217.57611,1807.15785 L1217.57611,1705.31287 L1217.57611,1603.48023 L1217.57611,1502.78921 L1217.57611,1404.35983 L1217.57611,1309.17019 L1217.57611,1218.14593 L1217.57611,1132.06458 L1217.57611,1051.69442 L1217.57611,977.637124 L1217.57611,910.460409 L1217.57611,850.586987 L1217.57611,798.417968 L1217.57611,754.175505 L1217.57611,718.091007 L1217.57611,690.220014 L1217.57611,670.584124 L1217.57611,655.08584 M1216.9234,798.719309 L1336.74415,793.844555 L1448.53885,779.878293 L1544.27636,757.481611 L1618.09363,728.42153 L1664.11237,694.495962 L1688.9234,671.719309 M1817.18001,582.930833 L1826.72795,576.566417 L1910.81064,529.30718 L1993.77391,490.507247 L2076.18001,455.930833 M1591.37342,763.628274 L1552.89541,791.948482 L1491.14854,816.202262 L1411.08559,834.901671 L1317.57796,846.561846 L1217.37342,850.628274 M1218.79587,910.434354 L1301.32282,907.064797 L1378.32029,897.418554 L1444.26386,881.942639 L1495.10771,861.876358 L1526.79587,838.434354 M1217.4892,1218.09744 L1259.6586,1216.39539 L1298.99173,1211.5298 L1332.68268,1203.72293 L1358.65997,1193.59592 L1374.83689,1181.77599 L1380.4892,1169.09744 M1402.00457,1075.8106 L1395.58806,1090.29885 L1377.21281,1103.81524 L1347.74288,1115.39099 L1309.50457,1124.30493 L1264.84975,1129.86686 L1217.00457,1131.8106 M2076.30489,2206.66587 L1993.48405,2158.49026 L1910.10322,2105.97202 L1825.59734,2044.76855 L1742.56778,1975.95241 L1663.60569,1900.59305 L1590.72701,1819.72607 L1525.95275,1734.34695 L1470.72867,1645.45121 L1426.50053,1554.01277 L1394.11849,1460.95317 L1374.45815,1367.21244 L1367.82495,1273.66587 L1352.22699,1285.13112 L1327.22649,1294.95055 L1294.78336,1302.52625 L1256.90335,1307.23871 L1216.30489,1308.89069 M1481.96232,1626.7515 L1472.84886,1647.44302 L1446.72767,1666.74687 L1404.82303,1683.28463 L1350.4674,1696.03332 L1286.98814,1703.98542 L1218.96232,1706.7515 M1217.36802,1051.15292 L1273.49894,1048.87206 L1325.86548,1042.3165 L1370.7134,1031.79489 L1405.29804,1018.15909 L1426.84432,1002.22391 L1434.36802,985.15292 M1217.81829,716.5053 L1217.81829,615.944161 L1217.81829,518.00598 L1217.81829,424.17813 L1217.81829,335.957238 L1217.81829,255.015828 L1217.81829,183.026421 L1217.81829,115.5053 M1312.86921,651.55176 L1318.34705,619.934577 L1337.79057,522.941735 L1358.85059,430.120562 L1380.98997,342.93453 L1403.53979,263.035055 L1425.78558,192.061226 L1447.86921,125.55176 M1218.31829,616.413574 L1318.21682,620.32143 L1411.43888,631.518428 L1464.31829,643.413574 M1496.36723,640.209092 L1543.55015,559.482797 L1601.29557,472.986373 L1662.03124,392.454369 L1723.82469,319.336256 L1784.80447,255.059917 L1845.36723,195.209092 M1405.10444,647.462958 L1410.65201,631.313991 L1448.38565,536.670457 L1489.27988,446.379693 L1532.27608,361.857738 L1576.03061,284.652994 L1619.20494,216.338494 L1662.10444,152.462958 M1993.85761,364.743103 L1913.91109,305.821919 L1785.66481,255.3551 L1619.29787,216.452049 L1425.06059,192.197469 L1216.85761,183.743103 M1217.62402,671.12381 L1425.6081,662.637817 L1619.64115,638.292503 L1807.62402,594.12381 M1846.37135,577.611614 L1914.2058,550.234342 L1994.38817,491.191271 L2022.37135,427.899895 L1994.38817,364.611614 M1825.36406,478.895971 L1762.70708,432.671892 L1662.18826,393.081709 L1531.79621,362.560222 L1379.53476,343.532957 L1216.36406,336.895971 M1217.09903,719.609382 L1380.16729,712.956008 L1532.33314,693.891058 L1662.64333,663.288019 L1763.09903,623.609382 M1826.07747,578.227639 L1847.07747,528.73227 L1826.07747,479.227639 M1934.33907,472.61548 L1909.49427,528.742212 L1838.28131,581.11548 L1724.0318,625.96645 L1575.83653,660.540738 L1402.80154,682.093182 L1217.33907,689.61548 M1216.86981,255.802704 L1402.33228,263.318853 L1575.36727,284.871297 L1723.56254,319.451733 L1837.81205,364.302704 L1909.02501,416.66675 L1933.86981,472.802704 M1589.35856,628.942086 L1619.86987,588.501462 L1690.57017,507.105107 L1764.90277,431.951739 L1840.5562,364.302913 L1915.19868,305.426349 L1989.35856,250.942086 M1218.71025,517.699473 L1338.33849,522.54217 L1449.95357,536.416589 L1545.53727,558.665989 L1619.23595,587.534969 L1661.71025,618.699473 M1669.88707,617.483737 L1744.18833,546.316261 L1826.95956,477.464602 L1911.20251,416.229551 L1994.32391,363.684215 L2076.88707,315.483737 M2106.68516,385.171307 L2075.87496,315.589514 L1987.58964,250.677455 L1845.92368,195.07412 L1662.19024,152.213409 L1447.63644,125.492328 L1217.68516,116.171307 M1217.27173,654.455226 L1447.22301,645.134098 L1661.77681,618.415786 L1845.51025,575.554585 L1987.17621,519.950614 L2075.46153,455.034739 L2106.27173,385.455226 L2020.66357,426.80697 L1934.46105,472.450369 L1847.10029,526.658629 L1761.27877,588.57711 L1758.00725,595.967608 M1688.69968,671.831813 L1601.84326,705.728945 L1489.2088,731.858558 L1357.67216,748.153194 L1216.69968,753.831813 M1217.26985,425.539219 L1358.2376,431.273204 L1489.76985,447.690866 L1602.40053,474.041877 L1689.25406,508.208029 L1743.38356,548.111254 L1762.26985,590.873752 L1715.31113,630.539219 M1217.08281,1405.39355 L1259.25221,1403.70033 L1298.58534,1398.83687 L1332.27629,1391.02854 L1358.25358,1380.89964 L1374.43051,1369.06838 L1380.08281,1356.39355 M1217.30911,1603.05088 L1273.44003,1600.79054 L1325.80657,1594.32631 L1370.65449,1583.94456 L1405.23913,1570.47387 L1426.78541,1554.75502 L1434.30911,1537.89991 L1426.78541,1521.05088 M1401.92384,1447.67078 L1395.50733,1462.15055 L1377.13208,1475.66459 L1347.66215,1487.24097 L1309.42384,1496.16779 L1264.76902,1501.73003 L1216.92384,1503.67078 M1216.73989,1808.13161 L1299.76758,1804.7781 L1377.23224,1795.15138 L1443.57595,1779.70679 L1494.7283,1759.67188 L1526.60873,1736.27732 L1537.73989,1711.206 L1526.60873,1686.13161 M1217.5713,2006.04727 L1337.33233,2001.17146 L1449.0713,1987.20217 L1544.76109,1964.80062 L1618.54157,1935.73423 L1664.53737,1901.79203 L1680.5713,1865.4212 L1664.53737,1829.04727 M1590.09477,1760.37293 L1603.49951,1790.58471 L1590.09477,1820.79649 L1551.6584,1848.97882 L1489.97835,1873.11146 L1410.00204,1891.71983 L1316.59561,1903.32324 L1216.49951,1907.37293 M1216.90624,2186.52159 L1379.85602,2179.88703 L1531.91132,2160.86673 L1662.12683,2130.35641 L1762.50955,2090.78072 L1825.0817,2044.57356 L1846.90624,1995.04294 L1825.0817,1945.52159 M1840.21386,1942.38762 L1744.21386,1891.38762 M1743.58694,1890.89148 L1762.47323,1933.43406 L1743.58694,1975.96742 L1689.45743,2015.66277 L1602.60391,2049.64523 L1489.97323,2075.85694 L1358.44098,2092.18781 L1217.47323,2097.89148 M1217.16929,978.985624 L1284.95757,976.174932 L1348.21517,968.139915 L1402.381,955.246371 L1444.13931,938.516654 L1470.16929,918.985624 M1471.59978,918.886419 L1434.91734,986.139912 L1401.37112,1076.61404 L1381.00104,1168.81506 L1374.11767,1261.87645 L1381.00104,1354.93476 L1401.37112,1447.13579 L1434.91734,1537.60991 L1480.73348,1625.51528 L1537.954,1709.97609 L1605.04646,1790.14124 L1680.54456,1865.1442 L1762.3609,1934.14001 L1848.37243,1996.24672 L1935.9266,2050.62248 L2022.31997,2096.40691 L2108.11767,2137.88642 M1216.95399,2341.15874 L1425.18261,2332.73299 L1619.44381,2308.5605 L1785.83124,2269.78911 L1914.09331,2219.4931 L1994.04968,2160.77133 L2021.95399,2097.82746 L1994.04968,2034.88051 L1914.09331,1976.15874 M2076.72571,2068.60945 L1994.0026,2033.84389 L1910.72018,1994.8317 L1826.31404,1947.31393 L1743.38246,1891.93204 L1664.51356,1829.34293 L1591.72089,1760.24664 L1527.02307,1685.33399 L1471.86417,1605.34821 L1427.68823,1521.03254 L1401.72571,1447.60945 M1217.2027,2409.33565 L1447.15398,2399.96444 L1661.70778,2373.10255 L1845.44122,2330.00793 L1987.10718,2274.10825 L2075.3925,2208.84354 L2106.2027,2138.88704 L2075.3925,2068.93362 L1987.10718,2003.66891 L1912.94934,1975.11328 L1838.3089,1942.33565 L1909.54066,1994.99312 L1934.39202,2051.42441 L1909.54066,2107.86497 L1838.3089,2160.51316 L1724.02922,2205.6075 L1575.79482,2240.37558 L1402.71414,2262.04807 L1217.2027,2269.60191" id="fiven_funnel" stroke="#171FE2" stroke-width="0.5" transform="translate(1217.625150, 1262.420477) rotate(30.000000) translate(-1217.625150, -1262.420477) "></path>
    </g>
</svg>