<?xml version="1.0" encoding="UTF-8"?>
<svg width="630px" height="1009px" viewBox="0 0 630 1009" version="1.1" xmlns="http://www.w3.org/2000/svg" xmlns:xlink="http://www.w3.org/1999/xlink">
    <title>Combined Shape</title>
    <defs>
        <linearGradient x1="61.3897248%" y1="22.0153381%" x2="50.463925%" y2="92.8414067%" id="linearGradient-1">
            <stop stop-color="#46D2A0" offset="0%"></stop>
            <stop stop-color="#46D2A0" offset="6.39575309%"></stop>
            <stop stop-color="#FADC00" offset="25.114729%"></stop>
            <stop stop-color="#FEA046" offset="42.5440079%"></stop>
            <stop stop-color="#FF5275" offset="61.25071%"></stop>
            <stop stop-color="#B195F9" offset="78.5873171%"></stop>
            <stop stop-color="#6E96F0" offset="95.5173733%"></stop>
            <stop stop-color="#6E96F0" offset="100%"></stop>
        </linearGradient>
    </defs>
    <g id="v4" stroke="none" stroke-width="1" fill="none" fill-rule="evenodd">
        <path d="M563.505055,0.146908286 L629.747857,94.7529401 L629.789273,94.9397347 L601.420059,255.876377 C601.406556,255.952975 601.363067,256.010519 601.30674,256.045206 L507.575,321.675 L573.707032,416.123266 L573.748446,416.310073 L545.372224,577.237687 C545.368386,577.259454 545.361679,577.280714 545.352213,577.300854 C545.332535,577.345132 545.300644,577.380141 545.262586,577.404533 L451.365,643.151 L517.49607,737.599118 L517.537484,737.785924 L489.161771,898.713197 C489.155052,898.751305 489.14091,898.784697 489.121459,898.812904 L489.101,898.837 L489.059171,898.874995 L489.059171,898.874995 L489.087,898.851 C489.072161,898.865827 489.062467,898.873078 489.052335,898.879576 L331.779326,1009.00368 C331.685075,1009.06967 331.561112,1009.06158 331.476579,1008.9916 L331.431144,1008.94228 L265.152942,914.287452 C265.151842,914.285881 265.150763,914.284302 265.149704,914.282715 C265.127008,914.24957 265.112254,914.210507 265.108562,914.167617 L265.111709,914.100671 L293.39,753.767 L199.227677,819.700484 C199.133426,819.76648 199.009463,819.758391 198.924929,819.688409 L198.879494,819.639091 L132.599638,724.981566 C132.598966,724.980607 132.598303,724.979646 132.597647,724.978681 C132.574339,724.945519 132.559095,724.906087 132.555195,724.862657 L132.558263,724.794798 L160.836,564.465 L66.6756938,630.397535 C66.5814427,630.463531 66.4574797,630.455442 66.3729467,630.38546 L66.3275117,630.336142 L0.0452334538,535.67528 C0.043473578,535.672766 0.0417663845,535.670232 0.0401116419,535.667678 C0.0246455331,535.643609 0.0127326296,535.616124 0.00623033805,535.586338 C-0.00180049091,535.551148 -0.00187069702,535.515488 0.0051997822,535.481263 L28.3861244,374.56961 L28.4889303,374.408245 L563.133417,0.0459598507 C563.140585,0.0409408266 563.147851,0.0363607159 563.155193,0.0322060784 C563.158403,0.0310776423 563.161928,0.0293266651 563.165489,0.0276590048 L563.169299,0.0247879314 C563.29974,-0.0387268079 563.449684,0.0262067956 563.505055,0.146908286 Z M422.576,804.364 L265.706241,914.204248 L331.697362,1008.44979 L488.566,898.608 L456.358,852.608 L422.576,804.364 Z M450.662,643.652 L293.968143,753.371216 L265.708781,913.591988 L422.405436,803.872073 L432.815,744.867 L450.662,643.652 Z M451.164,643.741 L434.605,737.599 L422.904457,803.960116 L488.774659,898.032399 L517.026757,737.801615 L451.164,643.741 Z M478.785533,482.884674 L133.152437,724.899782 L199.14509,819.146612 L544.777,577.132 L478.785533,482.884674 Z M506.874,322.172 L161.414976,564.065772 L133.155614,724.286544 L274.566,625.27 L478.61,482.395 L500.569,357.931 L506.874,322.172 Z M534.829,161.52 L0.599,535.592 L66.5939067,629.84347 L600.825004,255.770043 L600.422,255.195 L534.829,161.52 Z M507.371,322.258 L499.084,369.227 L479.114948,482.483829 L544.984507,576.556878 L573.23789,416.324562 L507.371,322.258 Z M562.921,0.805 L28.8605776,374.758229 L0.601981638,534.979644 L534.65789,161.029435 L552.057,62.403 L562.921,0.805 Z M563.417,0.894 L550.061,76.601 L535.155853,161.11378 L601.032553,255.195431 L629.278795,94.9545127 L563.417,0.894 Z" id="Combined-Shape" fill="url(#linearGradient-1)" fill-rule="nonzero"></path>
    </g>
</svg>