<svg xmlns="http://www.w3.org/2000/svg" width="162.088" height="36" viewBox="0 0 162.088 36">
  <g id="Group_62" data-name="Group 62" transform="translate(-139 -3252)">
    <g id="Group_50" data-name="Group 50" transform="translate(-67.719 2557.489)">
      <path id="Path_1139" data-name="Path 1139" d="M44.154-215.4c-.259-.707-.621-1.07-1.1-1.07H40.082c-.483,0-.846.362-1.087,1.07l-3.451,9.957L32.76-215.975l-2.115,10.261,1.689,5.672a.963.963,0,0,0,1.018.725h3.779a1.01,1.01,0,0,0,1.07-.725l3.382-9.68,3.365,9.68a1.01,1.01,0,0,0,1.07.725h3.537a.963.963,0,0,0,1.018-.725L55.129-215.4a1.539,1.539,0,0,0,.052-.38v-.138a.732.732,0,0,0-.759-.552H51.609a1.441,1.441,0,0,0-1.553,1.07l-2.606,9.577Zm23.123,16.082c4.694,0,7.644-2.26,7.644-8.507,0-6.367-3.486-8.645-7.644-8.645H64.154c-4.159,0-7.644,2.278-7.644,8.645,0,6.247,2.951,8.507,7.644,8.507Zm-2.5-4.141c-2.761,0-3.192-2.4-3.192-4.469,0-1.967.431-4.366,3.192-4.366H66.69c2.744,0,3.158,2.4,3.158,4.366,0,2.071-.414,4.469-3.158,4.469Zm15.53,4.141a1.6,1.6,0,0,0,1.76-1.777v-8.611c0-1.346.518-2.606,2.4-2.606h2.381a1.583,1.583,0,0,0,1.777-1.743v-1.691c0-.4-.19-.725-.518-.725H84.567c-5.436,0-7.489,2.3-7.489,6.557v10.06a.58.58,0,0,0,.621.535Zm13.373,0a1.591,1.591,0,0,0,1.743-1.777v-22.45a.458.458,0,0,0-.518-.518H92.315c-1.242,0-1.967.518-1.967,1.691v22.519a.481.481,0,0,0,.552.535Zm9.836-17.152a1.257,1.257,0,0,0-1.122.587l-6.643,7.2,5.919,8.645a1.22,1.22,0,0,0,1.156.725h3.693c.535,0,.828-.242.828-.6a1.42,1.42,0,0,0-.311-.742l-5.436-7.92,6.488-6.92a.774.774,0,0,0,.276-.5c0-.311-.207-.466-.638-.466Zm20.362,17.152a.63.63,0,0,0,.707-.707c0-1.553.328-3.451-1.795-3.451h-6.212l7.075-9.991a3.274,3.274,0,0,0,.673-1.933v-.242a.744.744,0,0,0-.846-.828H109.485c-.466,0-.725.224-.725.69,0,1.519-.328,3.468,1.777,3.468h5.8l-7.04,10.043a3.22,3.22,0,0,0-.656,1.881v.38c0,.552.483.69.949.69Z" transform="translate(244.205 923.7)" fill="#fff"/>
      <path id="Line_1" data-name="Line 1" d="M-17.532,40.511h-5.021l7.408-36h4.973Z" transform="translate(287.553 690)" fill="#086cea"/>
      <path id="Path_1140" data-name="Path 1140" d="M23.884-204.236a5.811,5.811,0,0,1-4.573-1.622c-.949-1.087-1.432-3.037-1.432-5.85,0-2.847.466-4.8,1.415-5.867a5.966,5.966,0,0,1,4.59-1.588h7.575c1.363,0,1.846-.4,1.846-1.846v-2.726a.285.285,0,0,0-.328-.328H23.021q-5.461,0-8.386,2.8c-1.915,1.881-2.9,5.056-2.916,9.56a16.457,16.457,0,0,0,1.346,7.247c1.777,3.624,5.194,5.142,9.957,5.142H32.3a1.619,1.619,0,0,0,1.846-1.812v-12.752c0-.224-.1-.345-.328-.345h-9.18a1.635,1.635,0,0,0-1.881,1.829v2.709c0,.259.121.38.362.38h5.039v5.073ZM30.4-224.062c-.449,0-.673.121-.673.345a.732.732,0,0,0,.155.38L40.319-208v8.386c0,.19.121.293.345.293h4.055a1.688,1.688,0,0,0,1.9-1.915v-6.661l10.405-15.461a.974.974,0,0,0,.19-.466c0-.155-.155-.242-.483-.242h-4.78a1.242,1.242,0,0,0-1.035.638L43.649-212.57l-6.954-10.371a2.717,2.717,0,0,0-2.243-1.122Zm34.45,24.745c1.225,0,1.846-.587,1.846-1.777v-18.067h6.195l.143,0,.98-4.9H54.458a1.624,1.624,0,0,0-1.846,1.829v2.744a.285.285,0,0,0,.328.328H60.7v19.5c0,.224.1.345.328.345Z" transform="translate(195 925.578)" fill="#fff"/>
    </g>
  </g>
</svg>
