<svg xmlns="http://www.w3.org/2000/svg" width="32" height="32" viewBox="0 0 32 32">
  <g id="Group_60" data-name="Group 60" transform="translate(-219 -3504)">
    <rect id="Rectangle_112" data-name="Rectangle 112" width="32" height="32" transform="translate(219 3504)" fill="#1d1d1d"/>
    <g id="_x31_0.Linkedin" transform="translate(225.981 3510.577)">
      <path id="Path_1135" data-name="Path 1135" d="M49.957,48.187v-6.9c0-3.392-.7-5.984-4.487-5.984a3.888,3.888,0,0,0-3.54,2.026h-.045v-1.72H38.3v12.58h3.743V41.944c0-1.649.293-3.228,2.232-3.228,1.917,0,1.939,1.861,1.939,3.322v6.125h3.743Z" transform="translate(-31.919 -29.34)"/>
      <path id="Path_1136" data-name="Path 1136" d="M11.3,36.6h3.743V49.18H11.3Z" transform="translate(-11.007 -30.333)"/>
      <path id="Path_1137" data-name="Path 1137" d="M12.165,10a2.276,2.276,0,1,0,2.165,2.262A2.215,2.215,0,0,0,12.165,10Z" transform="translate(-10 -10)"/>
    </g>
  </g>
</svg>
