<svg xmlns="http://www.w3.org/2000/svg" width="728.023" height="447.47" viewBox="0 0 728.023 447.47">
  <g id="Group_15" data-name="Group 15" transform="translate(0.5 0.577)">
    <g id="Group_12" data-name="Group 12" transform="translate(227.377 0)">
      <path id="Path_67" data-name="Path 67" d="M185.115,216.491V268.94l-45.422,26.225L94.27,268.94V216.491l45.422-26.225Z" transform="translate(223.687 -85.368)" fill="none" stroke="#1060e3" stroke-width="1"/>
      <path id="Path_68" data-name="Path 68" d="M138.369,135.856v52.449L92.947,214.53,47.525,188.305V135.856l45.422-26.225Z" transform="translate(225.01 73.62)" fill="none" stroke="#1060e3" stroke-width="1"/>
      <path id="Path_69" data-name="Path 69" d="M44.879,81.886v52.449L-.544,160.56l-45.422-26.225V81.886L-.544,55.662Z" transform="translate(227.656 180.032)" fill="none" stroke="#1060e3" stroke-width="1"/>
      <path id="Path_70" data-name="Path 70" d="M44.879,189.833v52.449L-.544,268.507l-45.422-26.225V189.833L-.544,163.608Z" transform="translate(227.656 -32.806)" fill="none" stroke="#1060e3" stroke-width="1"/>
      <path id="Path_71" data-name="Path 71" d="M-1.867,108.537v52.449l-45.422,26.225-45.422-26.225V108.537l45.422-26.225Z" transform="translate(228.979 127.485)" fill="none" stroke="#1060e3" stroke-width="1"/>
      <path id="Path_72" data-name="Path 72" d="M-48.612,81.886v52.449L-94.035,160.56l-45.422-26.225V81.886l45.422-26.225Z" transform="translate(230.302 180.032)" fill="none" stroke="#1060e3" stroke-width="1"/>
      <path id="Path_73" data-name="Path 73" d="M-1.867,162.514v52.449l-45.422,26.225-45.422-26.225V162.514l45.422-26.225Z" transform="translate(228.979 21.058)" fill="none" stroke="#1060e3" stroke-width="1"/>
      <path id="Path_74" data-name="Path 74" d="M185.115,1.244V53.693L139.692,79.918,94.27,53.693V1.244l45.422-26.225Z" transform="translate(223.687 339.034)" fill="none" stroke="#1060e3" stroke-width="1"/>
      <path id="Path_75" data-name="Path 75" d="M138.369,27.909V80.359L92.947,106.583,47.525,80.359V27.909L92.947,1.685Z" transform="translate(225.01 286.458)" fill="none" stroke="#1060e3" stroke-width="1"/>
      <path id="Path_76" data-name="Path 76" d="M91.624.583V53.032L46.2,79.257.779,53.032V.583L46.2-25.641Z" transform="translate(226.333 340.337)" fill="none" stroke="#1060e3" stroke-width="1"/>
      <path id="Path_77" data-name="Path 77" d="M91.624,108.537v52.449L46.2,187.211.779,160.986V108.537L46.2,82.313Z" transform="translate(226.333 127.484)" fill="none" stroke="#1060e3" stroke-width="1"/>
      <path id="Path_79" data-name="Path 79" d="M-95.358,216.491V268.94l-45.422,26.225L-186.2,268.94V216.491l45.422-26.225Z" transform="translate(231.625 -85.368)" fill="none" stroke="#1060e3" stroke-width="1"/>
      <path id="Path_80" data-name="Path 80" d="M138.369,243.81v52.449L92.947,322.484,47.525,296.259V243.81l45.422-26.225Z" transform="translate(225.01 -139.232)" fill="none" stroke="#1060e3" stroke-width="1"/>
      <path id="Path_81" data-name="Path 81" d="M44.879,243.81v52.449L-.544,322.484l-45.422-26.225V243.81L-.544,217.585Z" transform="translate(227.656 -139.232)" fill="none" stroke="#1060e3" stroke-width="1"/>
      <path id="Path_82" data-name="Path 82" d="M231.86,297.787v52.449l-45.422,26.225-45.422-26.225V297.787l45.422-26.225Z" transform="translate(222.364 -245.659)" fill="none" stroke="#1060e3" stroke-width="1"/>
      <path id="Path_83" data-name="Path 83" d="M185.115,324.445v52.449l-45.422,26.225L94.27,376.894V324.445l45.422-26.225Z" transform="translate(223.687 -298.22)" fill="none" stroke="#1060e3" stroke-width="1"/>
      <path id="Path_84" data-name="Path 84" d="M231.86,189.833v52.449l-45.422,26.225-45.422-26.225V189.833l45.422-26.225Z" transform="translate(222.364 -32.806)" fill="none" stroke="#1060e3" stroke-width="1"/>
      <path id="Path_85" data-name="Path 85" d="M278.605,108.537v52.449l-45.422,26.225-45.422-26.225V108.537l45.422-26.225Z" transform="translate(221.041 127.485)" fill="none" stroke="#1060e3" stroke-width="1"/>
      <path id="Path_86" data-name="Path 86" d="M-142.1,243.81v52.449l-45.422,26.225-45.422-26.225V243.81l45.422-26.225Z" transform="translate(232.948 -139.232)" fill="none" stroke="#1060e3" stroke-width="1"/>
      <path id="Path_87" data-name="Path 87" d="M231.86,135.856v52.449L186.438,214.53l-45.422-26.225V135.856l45.422-26.225Z" transform="translate(222.364 73.62)" fill="none" stroke="#1060e3" stroke-width="1"/>
      <path id="Path_88" data-name="Path 88" d="M138.369,297.787v52.449L92.947,376.461,47.525,350.236V297.787l45.422-26.225Z" transform="translate(225.01 -245.659)" fill="none" stroke="#1060e3" stroke-width="1"/>
    </g>
    <g id="Group_14" data-name="Group 14" transform="translate(0 52.625)" opacity="0.3">
      <g id="Group_13" data-name="Group 13" transform="translate(0 0)">
        <path id="Path_67-2" data-name="Path 67" d="M185.115,216.491V268.94l-45.422,26.225L94.27,268.94V216.491l45.422-26.225Z" transform="translate(223.687 -111.272)" fill="none" stroke="silver" stroke-width="1"/>
        <path id="Path_69-2" data-name="Path 69" d="M44.879,81.886v52.449L-.544,160.56l-45.422-26.225V81.886L-.544,55.662Z" transform="translate(227.656 154.128)" fill="none" stroke="silver" stroke-width="1"/>
        <path id="Path_70-2" data-name="Path 70" d="M44.879,189.833v52.449L-.544,268.507l-45.422-26.225V189.833L-.544,163.608Z" transform="translate(227.656 -58.71)" fill="none" stroke="silver" stroke-width="1"/>
        <path id="Path_71-2" data-name="Path 71" d="M-1.867,108.537v52.449l-45.422,26.225-45.422-26.225V108.537l45.422-26.225Z" transform="translate(228.979 101.581)" fill="none" stroke="silver" stroke-width="1"/>
        <path id="Path_72-2" data-name="Path 72" d="M-48.612,81.886v52.449L-94.035,160.56l-45.422-26.225V81.886l45.422-26.225Z" transform="translate(230.302 154.128)" fill="none" stroke="silver" stroke-width="1"/>
        <path id="Path_73-2" data-name="Path 73" d="M-1.867,162.514v52.449l-45.422,26.225-45.422-26.225V162.514l45.422-26.225Z" transform="translate(228.979 -4.845)" fill="none" stroke="silver" stroke-width="1"/>
        <path id="Path_74-2" data-name="Path 74" d="M185.115,1.244V53.693L139.692,79.918,94.27,53.693V1.244l45.422-26.225Z" transform="translate(223.687 313.131)" fill="none" stroke="silver" stroke-width="1"/>
        <path id="Path_75-2" data-name="Path 75" d="M138.369,27.909V80.359L92.947,106.583,47.525,80.359V27.909L92.947,1.685Z" transform="translate(225.01 260.554)" fill="none" stroke="silver" stroke-width="1"/>
        <path id="Path_76-2" data-name="Path 76" d="M91.624.583V53.032L46.2,79.257.779,53.032V.583L46.2-25.641Z" transform="translate(226.333 314.433)" fill="none" stroke="silver" stroke-width="1"/>
        <path id="Path_77-2" data-name="Path 77" d="M91.624,108.537v52.449L46.2,187.211.779,160.986V108.537L46.2,82.313Z" transform="translate(226.333 101.581)" fill="none" stroke="silver" stroke-width="1"/>
        <path id="Path_78" data-name="Path 78" d="M-48.612,189.833v52.449l-45.422,26.225-45.422-26.225V189.833l45.422-26.225Z" transform="translate(230.302 -58.71)" fill="none" stroke="silver" stroke-width="1"/>
        <path id="Path_79-2" data-name="Path 79" d="M-95.358,216.491V268.94l-45.422,26.225L-186.2,268.94V216.491l45.422-26.225Z" transform="translate(231.625 -111.271)" fill="none" stroke="silver" stroke-width="1"/>
        <path id="Path_80-2" data-name="Path 80" d="M138.369,243.81v52.449L92.947,322.484,47.525,296.259V243.81l45.422-26.225Z" transform="translate(225.01 -165.136)" fill="none" stroke="silver" stroke-width="1"/>
        <path id="Path_81-2" data-name="Path 81" d="M44.879,243.81v52.449L-.544,322.484l-45.422-26.225V243.81L-.544,217.585Z" transform="translate(227.656 -165.136)" fill="none" stroke="silver" stroke-width="1"/>
        <path id="Path_82-2" data-name="Path 82" d="M231.86,297.787v52.449l-45.422,26.225-45.422-26.225V297.787l45.422-26.225Z" transform="translate(222.364 -271.562)" fill="none" stroke="silver" stroke-width="1"/>
        <path id="Path_84-2" data-name="Path 84" d="M231.86,189.833v52.449l-45.422,26.225-45.422-26.225V189.833l45.422-26.225Z" transform="translate(222.364 -58.71)" fill="none" stroke="silver" stroke-width="1"/>
        <path id="Path_85-2" data-name="Path 85" d="M278.605,108.537v52.449l-45.422,26.225-45.422-26.225V108.537l45.422-26.225Z" transform="translate(221.041 101.581)" fill="none" stroke="silver" stroke-width="1"/>
        <path id="Path_86-2" data-name="Path 86" d="M-142.1,243.81v52.449l-45.422,26.225-45.422-26.225V243.81l45.422-26.225Z" transform="translate(232.948 -165.136)" fill="none" stroke="silver" stroke-width="1"/>
        <path id="Path_87-2" data-name="Path 87" d="M231.86,135.856v52.449L186.438,214.53l-45.422-26.225V135.856l45.422-26.225Z" transform="translate(222.364 47.717)" fill="none" stroke="silver" stroke-width="1"/>
      </g>
    </g>
  </g>
</svg>
