<svg xmlns="http://www.w3.org/2000/svg" width="143.177" height="31.8" viewBox="0 0 143.177 31.8">
  <g id="Group_68" data-name="Group 68" transform="translate(-1799.912 -25)">
    <path id="Path_1139" data-name="Path 1139" d="M42.578-216.411c-.229-.625-.549-.945-.976-.945H38.981c-.427,0-.747.32-.96.945l-3.049,8.795-2.459-9.3-1.868,9.064,1.492,5.01a.851.851,0,0,0,.9.64h3.338a.892.892,0,0,0,.945-.64l2.988-8.551,2.972,8.551a.892.892,0,0,0,.945.64h3.125a.851.851,0,0,0,.9-.64l4.024-13.566a1.359,1.359,0,0,0,.046-.335v-.122a.647.647,0,0,0-.671-.488H49.163a1.273,1.273,0,0,0-1.372.945l-2.3,8.46ZM63-202.2c4.146,0,6.752-2,6.752-7.515,0-5.624-3.079-7.637-6.752-7.637H60.244c-3.673,0-6.752,2.012-6.752,7.637,0,5.518,2.606,7.515,6.752,7.515Zm-2.21-3.658c-2.439,0-2.82-2.119-2.82-3.948,0-1.738.381-3.856,2.82-3.856h1.692c2.424,0,2.789,2.119,2.789,3.856,0,1.829-.366,3.948-2.789,3.948ZM74.511-202.2a1.409,1.409,0,0,0,1.555-1.57v-7.606c0-1.189.457-2.3,2.119-2.3h2.1a1.4,1.4,0,0,0,1.57-1.539v-1.494c0-.351-.168-.64-.457-.64H78.276c-4.8,0-6.615,2.027-6.615,5.792v8.886a.512.512,0,0,0,.549.473Zm11.813,0a1.405,1.405,0,0,0,1.54-1.57v-19.831a.4.4,0,0,0-.457-.457H85.12c-1.1,0-1.738.457-1.738,1.494v19.892a.424.424,0,0,0,.488.473Zm8.688-15.151a1.111,1.111,0,0,0-.991.518l-5.868,6.356,5.228,7.637a1.077,1.077,0,0,0,1.021.64h3.262c.473,0,.732-.213.732-.533a1.254,1.254,0,0,0-.274-.655l-4.8-7,5.731-6.112a.684.684,0,0,0,.244-.442c0-.274-.183-.412-.564-.412ZM113-202.2a.556.556,0,0,0,.625-.625c0-1.372.29-3.049-1.585-3.049h-5.487L112.8-214.7a2.892,2.892,0,0,0,.594-1.707v-.213a.658.658,0,0,0-.747-.732H100.287c-.412,0-.64.2-.64.61,0,1.341-.29,3.064,1.57,3.064h5.121l-6.219,8.871a2.844,2.844,0,0,0-.579,1.661v.335c0,.488.427.61.838.61Z" transform="translate(1829.449 253.592)"/>
    <path id="Line_1" data-name="Line 1" d="M-18.118,36.311h-4.435l6.544-31.8h4.393Z" transform="translate(1873.947 20.489)" fill="#086cea"/>
    <path id="Path_1140" data-name="Path 1140" d="M22.465-206.549a5.133,5.133,0,0,1-4.039-1.433c-.838-.96-1.265-2.683-1.265-5.167,0-2.515.412-4.237,1.25-5.182a5.27,5.27,0,0,1,4.055-1.4h6.691c1.2,0,1.631-.351,1.631-1.631v-2.408a.252.252,0,0,0-.29-.29H21.7q-4.824,0-7.408,2.469c-1.692,1.661-2.561,4.466-2.576,8.444a14.537,14.537,0,0,0,1.189,6.4c1.57,3.2,4.588,4.542,8.795,4.542h8.2a1.43,1.43,0,0,0,1.631-1.6v-11.264c0-.2-.091-.3-.29-.3H23.135a1.445,1.445,0,0,0-1.661,1.616v2.393c0,.229.107.335.32.335h4.451v4.481Zm5.753-17.514c-.4,0-.594.107-.594.3a.647.647,0,0,0,.137.335l9.222,13.551v7.408c0,.168.107.259.3.259h3.582a1.491,1.491,0,0,0,1.677-1.692v-5.884l9.191-13.657a.86.86,0,0,0,.168-.412c0-.137-.137-.213-.427-.213H47.255a1.1,1.1,0,0,0-.915.564l-6.417,9.588-6.143-9.161a2.4,2.4,0,0,0-1.982-.991ZM58.648-202.2c1.082,0,1.631-.518,1.631-1.57v-15.959h5.472l.126,0,.866-4.326H49.472a1.435,1.435,0,0,0-1.631,1.616v2.424a.252.252,0,0,0,.29.29H54.99v17.224c0,.2.091.3.29.3Z" transform="translate(1788.193 255.25)"/>
  </g>
</svg>
