<?xml version="1.0" encoding="utf-8"?>
<!-- Generator: Adobe Illustrator 24.0.1, SVG Export Plug-In . SVG Version: 6.00 Build 0)  -->
<svg version="1.1" id="Layer_1" xmlns="http://www.w3.org/2000/svg" xmlns:xlink="http://www.w3.org/1999/xlink" x="0px" y="0px"
	 viewBox="0 0 47.6 48.3" style="enable-background:new 0 0 47.6 48.3;" xml:space="preserve">
<style type="text/css">
	.st0{fill:#FFFFFF;}
</style>
<g id="Group_33178" transform="translate(-0.064)">
	<path id="Path_35373" class="st0" d="M47.5,23.6H25V0h1.2c2.8,0.1,5.5,0.5,8.2,1l0,0c10.2,2.6,13.9,12.7,13.2,21.5L47.5,23.6z
		 M27.4,21.1h17.8c0.2-3.6-0.6-7.2-2.2-10.4c-1.8-3.7-5.2-6.4-9.2-7.4c-2.1-0.4-4.2-0.7-6.4-0.8L27.4,21.1z"/>
	<path id="Path_35374" class="st0" d="M22,48.3c-5.2,0-10.3-1.9-14.3-5.2c-3.5-3-5.9-7-7-11.4c-1.1-4.5-0.8-9.2,0.9-13.5
		C5,9.9,13.1,4.4,22,4.5l1.2,0v20.6h20.5l0.1,1.1c0.5,6-2.9,14.5-10.5,19C29.9,47.3,26,48.3,22,48.3z M20.7,7
		c-7.5,0.4-14,5.1-16.8,12.1c-1.5,3.8-1.8,8-0.8,12c0.9,4,3.1,7.5,6.2,10.1c8.1,7,20.4,6.1,27.4-2.1c2.8-3.2,4.4-7.3,4.7-11.5H20.7
		V7z"/>
</g>
</svg>
