<svg xmlns="http://www.w3.org/2000/svg" xmlns:xlink="http://www.w3.org/1999/xlink" viewBox="0,0,256,256" width="50px" height="50px" fill-rule="nonzero"><g fill="#ffffff" fill-rule="nonzero" stroke="none" stroke-width="1" stroke-linecap="butt" stroke-linejoin="miter" stroke-miterlimit="10" stroke-dasharray="" stroke-dashoffset="0" font-family="none" font-weight="none" font-size="none" text-anchor="none" style="mix-blend-mode: normal"><g transform="scale(5.12,5.12)"><path d="M2,18v8h11c2.20914,0 4,-1.79086 4,-4c0,-2.20914 -1.79086,-4 -4,-4zM22,18l-5,8h5l3.5,-6l2.5,4h-3l-1,2h10l-5,-8zM35,18v8h5v-2h9v-2h-9v-2h9v-2zM7,20h3c1.10457,0 2,0.89543 2,2c0,1.10457 -0.89543,2 -2,2h-3zM2,28v3h47v-3z"></path></g></g></svg>