<?xml version="1.0" encoding="utf-8"?>
<!-- Generator: Adobe Illustrator 24.0.1, SVG Export Plug-In . SVG Version: 6.00 Build 0)  -->
<svg version="1.1" id="Layer_1" xmlns="http://www.w3.org/2000/svg" xmlns:xlink="http://www.w3.org/1999/xlink" x="0px" y="0px"
	 viewBox="0 0 53.3 41.3" style="enable-background:new 0 0 53.3 41.3;" xml:space="preserve">
<style type="text/css">
	.st0{fill:#FFFFFF;}
</style>
<g id="m7aFXu.tif_1_" transform="translate(0.1 0)">
	<g id="EfAdjy.tif_1_" transform="translate(-0.1 0)">
		<g id="Group_33179" transform="translate(0 0)">
			<path id="Path_35375" class="st0" d="M17.3,37.7h3.5V21.2c0-1.9,0.5-2.3,2.3-2.3h7.3c1.7,0,2.2,0.5,2.2,2.2v16.6h3.5V2.6
				c0-2.2,0.4-2.6,2.6-2.6h7C47.5,0,48,0.5,48,2.4v35.4h3.3c1.2,0,2,0.5,2,1.8c0,1.3-0.8,1.8-2,1.8H2.3c-1.5,0-2.3-0.6-2.3-1.8
				s0.8-1.7,2.4-1.8h3v-7c0-2.8,0.2-3,3.1-3h6.7c1.5,0,2.1,0.6,2.1,2.1C17.3,32.5,17.3,35,17.3,37.7z M44.4,37.7V3.7h-4.5v34.1H44.4
				z M29,22.6h-4.6v15.2H29V22.6z M13.7,31.4H9.1v6.3h4.6V31.4z"/>
			<path id="Path_35376" class="st0" d="M17.3,3.5c-0.8,0-1.7,0-2.5,0C13.9,3.6,13.1,2.9,13,2c0-0.1,0-0.2,0-0.3
				C13,0.9,13.6,0.1,14.5,0c0.1,0,0.2,0,0.3,0c2.4,0,4.8,0,7.3,0c0.9-0.1,1.7,0.6,1.7,1.5c0,0.1,0,0.2,0,0.3c0,2.3,0,4.7,0,7.1
				c0.1,0.9-0.6,1.6-1.4,1.7c-0.1,0-0.2,0-0.3,0c-0.9,0.1-1.7-0.5-1.8-1.4c0-0.1,0-0.2,0-0.3c0-0.8,0-1.6,0-2.7
				C19.7,6.7,19.3,7,19,7.4c-5.1,5-10.1,10-15.1,15c-0.3,0.3-0.5,0.6-0.8,0.8c-0.7,0.6-1.7,0.6-2.4,0c0,0,0,0,0,0
				c-0.7-0.6-0.8-1.7-0.2-2.4c0,0,0.1-0.1,0.1-0.1c0.3-0.3,0.5-0.6,0.8-0.8c5-5,9.9-10,14.9-14.9c0.4-0.3,0.8-0.6,1.2-0.9
				C17.5,3.9,17.4,3.7,17.3,3.5z"/>
		</g>
	</g>
</g>
</svg>
