<svg xmlns="http://www.w3.org/2000/svg" xmlns:xlink="http://www.w3.org/1999/xlink" viewBox="0,0,256,256" width="128px" height="128px" fill-rule="nonzero"><g fill="#ffffff" fill-rule="nonzero" stroke="none" stroke-width="1" stroke-linecap="butt" stroke-linejoin="miter" stroke-miterlimit="10" stroke-dasharray="" stroke-dashoffset="0" font-family="none" font-weight="none" font-size="none" text-anchor="none" style="mix-blend-mode: normal"><g transform="scale(8,8)"><path d="M11.02734,11.57617c-0.923,-0.001 -1.4082,0.61806 -1.4082,1.16406c0,0.192 0.04653,0.86914 1.26953,0.86914c1.018,0 1.4082,-0.65072 1.4082,-1.13672c0,-0.327 -0.26853,-0.89648 -1.26953,-0.89648zM1.86328,11.86523l-1.85742,8.32813h2.29102c0.26,-1.336 0.60917,-2.74555 0.95117,-4.18555l1.60352,4.18359h2.18359l1.87891,-8.32422l-2.24609,0.00195l-0.95117,4.23437l-1.57422,-4.23828zM13.31641,11.86719l-1.84766,8.32422h2.21875l0.74414,-3.16602l0.93945,3.16602h2.27148l-0.94336,-3.33984l2.28516,-2.77734h-2.54687l-1.83789,2.2207l0.99219,-4.42578zM22.12305,13.82031c-3.442,0 -3.94297,2.68383 -4.04297,3.17383c-0.251,1.239 0.02948,2.84744 1.64648,3.27344c1.067,0.281 2.73364,0.25005 3.80664,-0.62695c0.98,-0.802 1.46617,-2.15664 1.45117,-3.43164c-0.017,-1.227 -1.05533,-2.38867 -2.86133,-2.38867zM30.37891,13.91797c-0.7642,0.05072 -1.54097,0.46747 -1.98047,1.07422c0.058,-0.25 0.12045,-0.54291 0.18945,-0.87891h-2.26953l-1.33008,6.07813h2.25781l0.75586,-3.44727c0.139,-0.634 0.64666,-0.90606 1.09766,-0.78906c0.196,0.053 0.464,0.20052 0.375,0.72852l-0.76758,3.50781h2.23242l1.02148,-4.67969c0.22,-1.031 -0.62698,-1.45362 -0.83398,-1.51562c-0.23925,-0.07125 -0.49331,-0.09503 -0.74805,-0.07812zM9.50586,14.07813l-1.36328,6.11328h2.23633l1.36133,-6.11328zM21.81055,15.55273c0.493,-0.004 0.62698,0.2865 0.58398,0.5625c-0.118,0.763 -0.38247,1.73397 -0.48047,2.04297c-0.002,0.004 -0.00291,0.00872 -0.00391,0.01172c-0.108,0.338 -0.42483,0.5332 -0.79883,0.5332c-0.379,0 -0.60917,-0.23702 -0.57617,-0.54102c0.056,-0.513 0.37966,-1.80945 0.47266,-2.06445c0.162,-0.446 0.60374,-0.54292 0.80273,-0.54492z"></path></g></g></svg>