<svg xmlns="http://www.w3.org/2000/svg" xmlns:xlink="http://www.w3.org/1999/xlink" viewBox="0,0,256,256" width="150px" height="150px" fill-rule="nonzero"><g fill="#ffffff" fill-rule="nonzero" stroke="none" stroke-width="1" stroke-linecap="butt" stroke-linejoin="miter" stroke-miterlimit="10" stroke-dasharray="" stroke-dashoffset="0" font-family="none" font-weight="none" font-size="none" text-anchor="none" style="mix-blend-mode: normal"><g transform="scale(5.12,5.12)"><path d="M33.81641,16.83594v15.16406h-3.64062v-15.16406h3.64063M5.64063,16.83594v4.94141c0,0 0.10547,-0.04297 0.32031,-0.10547l0.91797,-0.10937h2.36328c0.05469,0 0.10938,0 0.16016,0c0.70703,0 1.35547,0.12891 1.94922,0.38672c0.61719,0.25391 1.10547,0.66016 1.48828,1.21094c0.36328,0.57813 0.55469,1.32031 0.55469,2.23828v6.60156h-3.64062v-6.13281c-0.02344,-0.25781 -0.10937,-0.51172 -0.30078,-0.68359c-0.19141,-0.16797 -0.42578,-0.27734 -0.67969,-0.27734h-2.12891c-0.30078,0 -0.51172,0.10938 -0.70312,0.27734c-0.19531,0.17188 -0.27734,0.42578 -0.30078,0.68359v6.13281h-3.64062v-15.16406h3.64063M48,21.56641v6.42969c0,0.76563 -0.14844,1.46875 -0.44531,2.06641c-0.27734,0.59766 -0.70312,1.06641 -1.23828,1.40625c-0.55078,0.31641 -1.21094,0.48828 -1.97656,0.48828v0.04297h-3.55859c-0.83203,0 -1.55469,-0.17187 -2.19141,-0.46875c-0.62109,-0.29687 -1.08594,-0.74609 -1.44922,-1.34375c-0.36328,-0.59375 -0.51172,-1.33984 -0.53516,-2.19141v-6.42969h3.66406v6.10938c0,0.27734 0.10547,0.51172 0.27734,0.70313c0.17188,0.17188 0.40625,0.25781 0.70313,0.27734h2.12891c0.27734,-0.01953 0.51172,-0.10547 0.68359,-0.27734c0.16797,-0.19141 0.27734,-0.42578 0.27734,-0.70312v-6.10937h3.66016M27.40625,21.56641v6.42969c-0.01953,0.76563 -0.17187,1.46875 -0.44531,2.06641c-0.30078,0.59766 -0.72656,1.06641 -1.25781,1.40625c-0.53516,0.31641 -1.19141,0.48828 -1.96094,0.48828v0.04297h-3.57812c-0.85156,0 -1.55469,-0.17187 -2.19141,-0.46875c-0.61719,-0.29687 -1.10937,-0.74609 -1.44922,-1.34375c-0.33984,-0.59375 -0.51172,-1.33984 -0.51172,-2.19141v-6.42969h3.64453v6.10938c0.01953,0.27734 0.10547,0.51172 0.29688,0.70313c0.16797,0.17188 0.40625,0.25781 0.67969,0.27734h2.13281c0.27344,-0.01953 0.50781,-0.10547 0.70313,-0.27734c0.16797,-0.19141 0.25391,-0.42578 0.27344,-0.70312v-6.10937h3.66406M33.81641,14.83594h-3.64062c-1.10547,0 -2,0.89453 -2,2v2.88281c-0.23828,-0.10156 -0.49609,-0.15234 -0.76953,-0.15234h-3.66406c-1.10547,0 -2,0.89453 -2,2v5.08984h-0.08984v-5.08984c0,-1.10547 -0.89453,-2 -2,-2h-3.64062c-1.0625,0 -1.92969,0.82422 -1.99609,1.86719c-0.53125,-0.58203 -1.16797,-1.02734 -1.90234,-1.33203c-0.8125,-0.35547 -1.73437,-0.53906 -2.71094,-0.53906c-0.0625,0 -0.125,0 -0.1875,0h-1.57422v-2.72656c0,-1.10547 -0.89453,-2 -2,-2h-3.64062c-1.10547,0 -2,0.89453 -2,2v15.16406c0,1.10547 0.89453,2 2,2h3.64063c1.10547,0 2,-0.89453 2,-2v-5.09375h0.11328v5.09375c0,1.10547 0.89453,2 2,2h3.64063c1.08984,0 1.98047,-0.875 2,-1.96484c0.46484,0.53906 1.03906,0.97266 1.71094,1.29688c0.96875,0.45313 1.96094,0.66797 3.05859,0.66797h3.57813c0.16797,0 0.32813,-0.01953 0.48438,-0.05859c0.92969,-0.06641 1.76953,-0.32031 2.50391,-0.75781c0.01563,-0.01172 0.03516,-0.02344 0.05078,-0.03125c0.54297,-0.34766 1.00781,-0.77344 1.39453,-1.27734v0.125c0,1.10547 0.89453,2 2,2h3.64063c1.10547,0 2,-0.89453 2,-2v-0.21094c0.51563,0.66406 1.15234,1.18359 1.90234,1.54297c0.95703,0.44531 1.98047,0.66797 3.0625,0.66797h3.55859c0.16406,0 0.32813,-0.01953 0.48438,-0.05859c0.91406,-0.0625 1.75,-0.3125 2.49219,-0.74219c0.02734,-0.01562 0.05469,-0.03125 0.08203,-0.04687c0.86719,-0.55859 1.52734,-1.30469 1.95703,-2.22266c0.42578,-0.86719 0.64453,-1.85547 0.64453,-2.93359v-6.43359c0,-1.10156 -0.89453,-2 -2,-2h-3.66406c-1.10547,0 -2,0.89844 -2,2v5.09375h-0.06641v-5.09375c0,-1.10156 -0.89453,-2 -2,-2h-3.66406c-0.28125,0 -0.54687,0.05859 -0.78906,0.16406v-2.89062c0,-1.10547 -0.89453,-2 -2,-2z"></path></g></g></svg>