<?xml version="1.0" encoding="utf-8"?>
<!-- Generator: Adobe Illustrator 24.0.1, SVG Export Plug-In . SVG Version: 6.00 Build 0)  -->
<svg version="1.1" id="Layer_1" xmlns="http://www.w3.org/2000/svg" xmlns:xlink="http://www.w3.org/1999/xlink" x="0px" y="0px"
	 viewBox="0 0 51.5 51.5" style="enable-background:new 0 0 51.5 51.5;" xml:space="preserve">
<style type="text/css">
	.st0{fill:#FFFFFF;}
</style>
<g id="_x31_S0ZJZ.tif_1_" transform="translate(0.009 0.019)">
	<g id="Group_33177" transform="translate(-0.009 -0.019)">
		<path id="Path_35370" class="st0" d="M28.4,51.5c-0.4-0.7-0.7-1.4-1-2.1c-1.1-3.4-2-6.8-3.1-10.2c-0.3-1-0.9-1.9-1.6-2.6
			c-2.6-2.7-5.2-5.3-7.9-7.9c-0.7-0.7-1.5-1.2-2.5-1.5C8.9,26,5.3,25.1,1.8,24c-2.1-0.6-2.3-1.4-1-3.1c2.8-3.7,6-7.2,10.8-8
			c2.9-0.5,5.9-0.3,8.8-0.5c0.6,0,1.2-0.2,1.7-0.6C28.9,5.5,37.6,1.4,46.8,0.3c5.1-0.7,5-0.4,4.5,4.4c-1,9.2-5,17.8-11.4,24.5
			c-0.5,0.6-0.7,1.4-0.7,2.2c-0.2,2.8,0,5.7-0.5,8.5c-0.7,4.3-3.6,7.3-6.8,10c-0.7,0.6-1.4,1.2-2.2,1.8
			C29.2,51.5,28.8,51.5,28.4,51.5z M46.8,11.8c-0.1-0.4-0.3-0.8-0.4-1.2c-1-2.3-2.9-4.2-5.2-5.3c-0.9-0.4-1.9-0.4-2.9-0.2
			c-2,0.7-4,1.5-5.8,2.6c-7.1,3.9-12.8,9.2-15.9,16.9c-0.5,0.9-0.3,2,0.5,2.6c2.3,2.1,4.5,4.3,6.6,6.6c1.3,1.4,2.3,1.5,3.9,0.7
			c9.6-4.6,15.5-12.5,19.1-22.2C46.7,12.2,46.8,12,46.8,11.8z M18.7,15c-6.2-0.6-11.3,1.3-15,6.8c3.3,1,6.6,2,9.5,2.8
			C15.2,21.3,17,18.2,18.7,15L18.7,15z M29.7,47.6c5.3-3.3,8.1-9.8,6.6-14.9c-3.1,1.8-6.2,3.5-9.5,5.4
			C27.7,41.2,28.7,44.4,29.7,47.6z M48.1,7.3c0.1-1.4,0.3-2.8,0.4-4.5c-1.7,0.2-3,0.4-4.3,0.6C45.6,4.8,46.8,6,48.1,7.3z"/>
		<path id="Path_35371" class="st0" d="M7.5,40.7c-2-1.2-2.1-1.7-0.7-3.4c1.1-1.3,2.1-2.5,3.3-3.7c2.2-2.4,6-2.5,8.4-0.3
			s2.5,6,0.3,8.4c-0.2,0.2-0.5,0.5-0.7,0.7c-1.4,1.1-2.8,2.1-4.2,3.2c-1.5,1.1-2.2,0.9-2.9-1c-1.3,0.7-2.6,1.4-4,1.9
			c-0.7,0.1-1.4,0.1-2.1,0c-0.1-0.7,0-1.4,0.2-2.1C5.8,43.1,6.7,41.9,7.5,40.7z M14,42.1c1-0.7,1.9-1.5,2.8-2.3
			c1.2-1.2,1.3-3.1,0.1-4.3c0,0-0.1-0.1-0.1-0.1c-1.1-1.3-3.1-1.4-4.3-0.3c0,0,0,0-0.1,0.1c-0.9,0.9-1.8,1.9-2.7,2.9
			c2.3,0.9,1.3,2.2,0.4,3.6C11.7,41.3,13.1,40,14,42.1L14,42.1z"/>
		<path id="Path_35372" class="st0" d="M36.4,9.3c3.3,0,5.9,2.7,5.9,6s-2.7,5.9-6,5.9c-3.3,0-5.9-2.7-5.9-6c0,0,0,0,0,0
			C30.3,12,32.9,9.4,36,9.3C36.1,9.3,36.3,9.3,36.4,9.3z M39.5,15.2c0-1.8-1.5-3.3-3.3-3.3c-1.8,0-3.3,1.5-3.3,3.3
			c0,1.8,1.5,3.3,3.3,3.3C38.1,18.5,39.6,17,39.5,15.2L39.5,15.2z"/>
	</g>
</g>
</svg>
