<svg xmlns="http://www.w3.org/2000/svg" xmlns:xlink="http://www.w3.org/1999/xlink" viewBox="0,0,256,256" width="50px" height="50px" fill-rule="nonzero"><g fill="#ffffff" fill-rule="nonzero" stroke="none" stroke-width="1" stroke-linecap="butt" stroke-linejoin="miter" stroke-miterlimit="10" stroke-dasharray="" stroke-dashoffset="0" font-family="none" font-weight="none" font-size="none" text-anchor="none" style="mix-blend-mode: normal"><g transform="scale(5.12,5.12)"><path d="M25,14c-6.82891,0 -13.01493,1.29336 -17.53711,3.41602c-4.52218,2.12266 -7.46289,5.1205 -7.46289,8.58398c0,3.46348 2.94071,6.46133 7.46289,8.58398c4.52218,2.12266 10.7082,3.41602 17.53711,3.41602c6.82891,0 13.01493,-1.29336 17.53711,-3.41602c4.52218,-2.12266 7.46289,-5.1205 7.46289,-8.58398c0,-3.46348 -2.94071,-6.46133 -7.46289,-8.58398c-4.52218,-2.12266 -10.7082,-3.41602 -17.53711,-3.41602zM25,15c6.70207,0 12.76626,1.28079 17.11133,3.32031c4.34507,2.03952 6.88867,4.79189 6.88867,7.67969c0,2.8878 -2.5436,5.64016 -6.88867,7.67969c-4.34507,2.03952 -10.40925,3.32031 -17.11133,3.32031c-6.70207,0 -12.76626,-1.28079 -17.11133,-3.32031c-4.34507,-2.03952 -6.88867,-4.79189 -6.88867,-7.67969c0,-2.8878 2.5436,-5.64016 6.88867,-7.67969c4.34507,-2.03952 10.40925,-3.32031 17.11133,-3.32031zM25,16c-6.27025,0 -11.94786,1.06765 -16.10352,2.82227c-2.07783,0.8773 -3.7794,1.92604 -4.98242,3.12695c-1.20302,1.20091 -1.91406,2.57911 -1.91406,4.05078c0,1.47168 0.71104,2.84987 1.91406,4.05078c1.20302,1.20091 2.90459,2.24965 4.98242,3.12695c4.15565,1.75461 9.83326,2.82227 16.10352,2.82227c6.27025,0 11.94786,-1.06766 16.10352,-2.82227c2.07783,-0.8773 3.7794,-1.92604 4.98242,-3.12695c1.20302,-1.20091 1.91406,-2.57911 1.91406,-4.05078c0,-1.47168 -0.71104,-2.84987 -1.91406,-4.05078c-1.20302,-1.20091 -2.9046,-2.24965 -4.98242,-3.12695c-4.15565,-1.75461 -9.83326,-2.82227 -16.10352,-2.82227zM25,17c6.15616,0 11.72711,1.05848 15.71484,2.74219c1.99387,0.84186 3.58996,1.84184 4.66406,2.91406c1.0741,1.07222 1.62109,2.19207 1.62109,3.34375c0,1.15168 -0.54699,2.27153 -1.62109,3.34375c-1.0741,1.07222 -2.67019,2.07221 -4.66406,2.91406c-3.98774,1.68371 -9.55868,2.74219 -15.71484,2.74219c-6.15616,0 -11.72711,-1.05848 -15.71484,-2.74219c-1.99387,-0.84186 -3.58996,-1.84184 -4.66406,-2.91406c-1.0741,-1.07222 -1.62109,-2.19207 -1.62109,-3.34375c0,-1.15168 0.54699,-2.27153 1.62109,-3.34375c1.0741,-1.07222 2.67019,-2.07221 4.66406,-2.91406c3.98774,-1.68371 9.55868,-2.74219 15.71484,-2.74219zM12,20c-2,0 -3.14937,0.638 -4.23437,4c-1.207,3.738 -0.12305,6.79492 -0.12305,6.79492l1.35742,-0.79492c-0.979,-2.553 0,-5 0,-5c2.277,2.872 4,0 4,0c1.787,-2.071 0.651,-5 -1,-5zM29.57031,20.41016c-0.8,-0.06 -1.87109,0.6693 -2.62109,3.0293c-0.75,2.36 -0.34961,4.37109 -0.34961,4.37109c0,0 -0.73039,0.95898 -1.40039,0.70898c-0.67,-0.26 0.78063,-3.35937 0.39063,-3.60937c-0.38,-0.26 -1.12984,0.08984 -1.58984,0.08984h-1c0,0 0.12055,0.47922 -0.68945,2.44922c-0.82,1.96 -1.95117,1.16016 -1.95117,1.16016c2.35,-2.17 1.63125,-4.01953 0.53125,-4.01953c-1.1,0 -1.79055,0.93086 -2.06055,1.88086c-0.27,0.96 0.14063,2.13867 0.14063,2.13867c-1.992,0.998 -1.08008,-1.99023 -1.08008,-1.99023l1.10938,-2.61914c2.01,-1.55 4.43945,-0.99609 4.43945,-0.99609l0.56055,-1.00391c-3.51,-0.32 -5,1 -5,1l0.7168,-1.97266h-1.21484l-0.77148,2.54297c-0.31,0.33 -1.74024,0 -1.74024,0l-0.31055,0.79883c0.36,0.27 1.67969,0.25 1.67969,0.25c0,0 -0.07914,1.04016 -1.11914,2.91016c-1.03,1.86 -2.08008,1.13086 -2.08008,1.13086c2.32,-2.14 1.79984,-3.56016 0.83984,-3.66016c-0.95,-0.1 -1.87953,0.60961 -2.26953,1.59961c-0.38,0.99 -0.19531,1.79297 -0.19531,1.79297l-0.98242,0.60352l0.44727,1.00391l1,-1c0,0 0.35078,0.71094 1.55078,0.71094c1.2,0 2.16992,-1.15039 2.16992,-1.15039c0,0 0.68875,1.15039 1.46875,1.15039c0.78,0 1.36133,-0.56055 1.36133,-0.56055c0,0 0.54984,0.48047 1.33984,0.48047c2.04,0 2.78906,-3.7207 2.78906,-3.7207h0.7207c-1.01,2.16 -0.55039,3.80078 0.59961,3.80078c1.15,0 1.98047,-1.15039 1.98047,-1.15039c0,0 0.69992,1.03906 1.41992,1.03906c1.98,0 2.13867,-3.41016 2.13867,-3.41016h1.33008c-1.09,2.12 -0.22836,3.33008 1.18164,3.33008c1.4,0 1.7793,-1.08008 1.7793,-1.08008c0,0 0.61078,1.27148 2.05078,1.27148c1.43,0 2.22852,-1.03125 2.22852,-1.03125c0.22,1.08 2.79102,0.90039 2.79102,0.90039v-1.0293c-2.79,0.84 -1.62109,-2 -1.62109,-2l1.06055,-2.49023c1.92,-1.35 2.66602,-0.67969 2.66602,-0.67969v-1.15039c-1.595,0 -2.2168,0.73047 -2.2168,0.73047l0.37109,-1.4707l-1.19922,0.03906l-0.70117,1.85156c-0.42,0 -1.25977,-0.38086 -1.25977,-0.38086l-0.5,1.0293l1.38086,0.38086c-0.53,2.41 -1.97992,4.39063 -2.91992,4.39063c-0.95,0 -1.30078,-1.35156 -1.30078,-1.35156c0.01,0 0.22078,-0.02883 1.55078,-2.29883c1.36,-2.33 1.16922,-4.36117 0.44922,-4.45117c-0.72,-0.1 -1.65055,0.20117 -2.56055,2.20117c-0.9,1.99 -0.61914,4.60938 -0.61914,4.60938c-0.25,0.75 -1.01992,1.04102 -1.41992,1.04102c-0.4,0 -0.73047,-0.34172 -0.73047,-1.01172c0,-0.67 1.14922,-2.01984 0.69922,-2.33984c-0.45,-0.32 -1.03875,0.30078 -1.71875,0.30078c-0.69,0 -1.31055,-0.5 -1.31055,-0.5c-0.05,1.64 -1.00961,3.57961 -1.59961,3.59961c-0.59,0.01 -0.62109,-1.07031 -0.62109,-1.07031c0,0 0.62141,-1.17899 1.69141,-2.95898c1.07,-1.77 0.89961,-4.10016 0.09961,-4.16016zM11.64258,20.99023c0.12369,-0.00686 0.24417,-0.00348 0.35742,0.00977c0.482,0.057 1.41594,0.91019 0.58594,2.86719c-0.83,1.958 -3.45709,1.28887 -3.12109,-0.70313c0.26162,-1.55313 1.31194,-2.12583 2.17773,-2.17383zM29.23047,21.41016c0.29,0 0.24,1.04008 0,1.83008c-0.24,0.8 -1.1207,3.12891 -1.7207,3.12891c-0.2,0 -0.09945,-1.41914 0.31055,-2.86914c0.42,-1.45 1.12016,-2.08984 1.41016,-2.08984zM37.2207,21.59961c0.29,0 0.32008,0.79961 0.08008,1.59961c-0.24,0.79 -1.38984,3.16992 -1.83984,3.16992c-0.19,0 -0.09164,-1.41914 0.31836,-2.86914c0.42,-1.45 1.16141,-1.90039 1.44141,-1.90039zM33.53516,22.69922c-0.28018,-0.00154 -0.58326,0.1916 -0.77539,0.49414c-0.18622,0.27742 -0.24907,0.60909 -0.16396,0.86517c0.08511,0.25608 0.30465,0.39582 0.57267,0.36452c0.26802,-0.0313 0.54187,-0.22867 0.71434,-0.51484c0.16739,-0.26265 0.22607,-0.5693 0.15574,-0.81386c-0.07032,-0.24456 -0.26,-0.39343 -0.5034,-0.39513zM20.56641,25.41211c0.04967,-0.00436 0.10117,0.0007 0.1543,0.01758c1.07,0.33 -0.45133,2.34961 -0.86133,2.34961c-0.38437,0 -0.03799,-2.30182 0.70703,-2.36719zM14.50781,25.71094c0.05009,-0.00046 0.10109,0.0093 0.15234,0.0293c0.82,0.32 -0.79945,2.33047 -1.18945,2.23047c-0.30938,-0.08438 0.28575,-2.25284 1.03711,-2.25977z"></path></g></g></svg>