<svg id="instagram_7_" data-name="instagram (7)" xmlns="http://www.w3.org/2000/svg" width="44.221" height="44.229" viewBox="0 0 44.221 44.229">
  <path id="Path_1132" data-name="Path 1132" d="M44.558,13A16.161,16.161,0,0,0,43.53,7.638a11.33,11.33,0,0,0-6.472-6.471A16.2,16.2,0,0,0,31.693.138C29.325.026,28.573,0,22.568,0s-6.757.026-9.116.13A16.166,16.166,0,0,0,8.087,1.158,10.792,10.792,0,0,0,4.165,3.715,10.89,10.89,0,0,0,1.616,7.629,16.2,16.2,0,0,0,.588,12.995C.475,15.363.449,16.114.449,22.119s.026,6.757.13,9.116A16.161,16.161,0,0,0,1.607,36.6a11.328,11.328,0,0,0,6.471,6.471A16.2,16.2,0,0,0,13.444,44.1c2.359.1,3.111.13,9.116.13s6.757-.026,9.116-.13a16.157,16.157,0,0,0,5.365-1.028A11.313,11.313,0,0,0,43.513,36.6a16.216,16.216,0,0,0,1.028-5.366c.1-2.359.13-3.111.13-9.116S44.662,15.363,44.558,13ZM40.575,31.062a12.123,12.123,0,0,1-.76,4.1,7.337,7.337,0,0,1-4.2,4.2,12.166,12.166,0,0,1-4.1.76c-2.333.1-3.033.13-8.934.13s-6.61-.026-8.934-.13a12.117,12.117,0,0,1-4.1-.76A6.806,6.806,0,0,1,7,37.715a6.876,6.876,0,0,1-1.65-2.54,12.168,12.168,0,0,1-.76-4.1c-.1-2.333-.13-3.033-.13-8.934s.026-6.61.13-8.934a12.117,12.117,0,0,1,.76-4.1,6.723,6.723,0,0,1,1.659-2.54,6.866,6.866,0,0,1,2.54-1.65,12.174,12.174,0,0,1,4.1-.76c2.333-.1,3.033-.13,8.934-.13s6.61.026,8.934.13a12.123,12.123,0,0,1,4.1.76,6.8,6.8,0,0,1,2.54,1.65,6.875,6.875,0,0,1,1.65,2.54,12.172,12.172,0,0,1,.76,4.1c.1,2.333.13,3.033.13,8.934S40.679,28.729,40.575,31.062Zm0,0" transform="translate(-0.449 0)" fill="#fff"/>
  <path id="Path_1133" data-name="Path 1133" d="M136.311,124.5a11.362,11.362,0,1,0,11.362,11.362A11.365,11.365,0,0,0,136.311,124.5Zm0,18.732a7.37,7.37,0,1,1,7.37-7.37A7.371,7.371,0,0,1,136.311,143.232Zm0,0" transform="translate(-114.192 -113.743)" fill="#fff"/>
  <path id="Path_1134" data-name="Path 1134" d="M367.755,91.254A2.653,2.653,0,1,1,365.1,88.6,2.653,2.653,0,0,1,367.755,91.254Zm0,0" transform="translate(-331.171 -80.946)" fill="#fff"/>
</svg>
