<svg id="_x31_0.Linkedin" xmlns="http://www.w3.org/2000/svg" width="42.603" height="44.513" viewBox="0 0 42.603 44.513">
  <path id="Path_1135" data-name="Path 1135" d="M65.832,65.736v-16.3c0-8.012-1.651-14.133-10.6-14.133a9.183,9.183,0,0,0-8.361,4.785h-.107V36.023H38.3V65.736h8.84V50.991c0-3.895.692-7.623,5.272-7.623,4.527,0,4.58,4.4,4.58,7.846V65.68h8.84Z" transform="translate(-23.229 -21.223)" fill="#fff"/>
  <path id="Path_1136" data-name="Path 1136" d="M11.3,36.6h8.84V66.313H11.3Z" transform="translate(-10.608 -21.799)" fill="#fff"/>
  <path id="Path_1137" data-name="Path 1137" d="M15.112,10A5.232,5.232,0,0,0,10,15.342a5.282,5.282,0,0,0,5.112,5.4,5.282,5.282,0,0,0,5.112-5.4A5.232,5.232,0,0,0,15.112,10Z" transform="translate(-10 -10)" fill="#fff"/>
</svg>
