<svg xmlns="http://www.w3.org/2000/svg" width="56.25" height="64" viewBox="0 0 56.25 64">
  <g id="location_8_" data-name="location (8)" transform="translate(-31)">
    <g id="Group_64" data-name="Group 64" transform="translate(31)">
      <g id="Group_63" data-name="Group 63">
        <path id="Path_1141" data-name="Path 1141" d="M69.81,42.286c6.81-10.687,5.954-9.353,6.151-9.632a20.471,20.471,0,0,0,3.79-11.9A20.625,20.625,0,1,0,42.4,32.806l6.042,9.48C41.981,43.278,31,46.236,31,52.75c0,2.374,1.55,5.758,8.933,8.395A59.181,59.181,0,0,0,59.125,64c13.5,0,28.125-3.809,28.125-11.25C87.25,46.235,76.282,43.28,69.81,42.286ZM45.531,30.743q-.031-.048-.065-.095a16.875,16.875,0,1,1,27.453-.19c-.181.238.762-1.226-13.794,21.615ZM59.125,60.25c-14.749,0-24.375-4.335-24.375-7.5,0-2.127,4.946-5.624,15.906-6.988L57.544,56.57a1.875,1.875,0,0,0,3.162,0l6.888-10.808C78.554,47.126,83.5,50.623,83.5,52.75,83.5,55.888,73.961,60.25,59.125,60.25Z" transform="translate(-31)" fill="#fff"/>
      </g>
    </g>
    <g id="Group_66" data-name="Group 66" transform="translate(49.75 11.375)">
      <g id="Group_65" data-name="Group 65">
        <path id="Path_1142" data-name="Path 1142" d="M190.375,91a9.375,9.375,0,1,0,9.375,9.375A9.386,9.386,0,0,0,190.375,91Zm0,15A5.625,5.625,0,1,1,196,100.375,5.631,5.631,0,0,1,190.375,106Z" transform="translate(-181 -91)" fill="#fff"/>
      </g>
    </g>
  </g>
</svg>
