<?xml version="1.0" encoding="UTF-8"?>
<svg width="787px" height="813px" viewBox="0 0 787 813" version="1.1" xmlns="http://www.w3.org/2000/svg" xmlns:xlink="http://www.w3.org/1999/xlink">
    <title>Stroke 1</title>
    <g id="v3" stroke="none" stroke-width="1" fill="none" fill-rule="evenodd" stroke-linecap="round" stroke-linejoin="round">
        <g id="B2" transform="translate(-106.000000, -93.000000)" stroke="#FFFFFF" stroke-width="0.5">
            <path d="M148.998911,298.008932 L217,210 M784,789 L851.641842,701.948924 M149,701 L107,600 M850,296 L892.002896,398.005308 M609,109 L499,94 M500,905 L390,890 M149.046489,297.993819 L392,234 M849.891401,296.151944 L783.580271,539.014908 M324,725 L107,600 M783.5,789 L783.5,539 M392,234 L609,109 M499,905 L324,725 M783.610741,539.003374 L501,500 M324,725 L500.995788,500 M500.92526,499.952378 L392.452533,233.87702 M501,905 L783.698631,789.221734 M216.962355,210.021367 L499.018311,93.9969815 M850,296 L608.958825,109.034096 M149,701 L390.069816,890.015055 M149,298 L107.012393,600.019007 M892,398 L851.686123,701.91655 M499.0647,94.0435338 L149.119654,297.95965 M849.969168,295.985625 L501,500 M851.5,702 L849.978676,296.085814 M501.031617,500 L149,298 M149.067012,701.052508 L500,905 M500.94962,500 L500.5,905" id="Stroke-1"></path>
        </g>
    </g>
</svg>