<svg id="twitter_2_" data-name="twitter (2)" xmlns="http://www.w3.org/2000/svg" width="52.085" height="44.23" viewBox="0 0 52.085 44.23">
  <g id="Group_48" data-name="Group 48" transform="translate(0 0)">
    <path id="Path_1138" data-name="Path 1138" d="M52.085,53.236A21.517,21.517,0,0,1,45.932,55a11.024,11.024,0,0,0,4.7-6.168,20.789,20.789,0,0,1-6.771,2.7A10.491,10.491,0,0,0,36.059,48,10.924,10.924,0,0,0,25.388,59.163a11.991,11.991,0,0,0,.247,2.545A29.814,29.814,0,0,1,3.626,50.035a11.626,11.626,0,0,0-1.462,5.641A11.316,11.316,0,0,0,6.908,64.95a10.2,10.2,0,0,1-4.824-1.375V63.7a11.1,11.1,0,0,0,8.555,10.966,10.223,10.223,0,0,1-2.8.367,9.046,9.046,0,0,1-2.022-.191,10.853,10.853,0,0,0,9.978,7.774,20.874,20.874,0,0,1-13.239,4.76A19.145,19.145,0,0,1,0,87.222,29.126,29.126,0,0,0,16.381,92.23c19.649,0,30.392-17.011,30.392-31.757,0-.493-.016-.97-.039-1.443A21.859,21.859,0,0,0,52.085,53.236Z" transform="translate(0 -48)" fill="#fff"/>
  </g>
</svg>
