<svg xmlns="http://www.w3.org/2000/svg" width="68.995" height="71.042" viewBox="0 0 68.995 71.042">
  <g id="earth-grid" transform="translate(-7.377 0)">
    <path id="Path_29" data-name="Path 29" d="M367.915,297.754a7.139,7.139,0,1,0-5.4,2.467A7.132,7.132,0,0,0,367.915,297.754Zm-10.454-4.672a5.053,5.053,0,0,1,1.233-3.309h0a5.056,5.056,0,1,1-1.233,3.309Z" transform="translate(-299.714 -246.266)" fill="#e3e4e4"/>
    <path id="Path_30" data-name="Path 30" d="M332.228,243.63a13.56,13.56,0,0,0-22.191,14.655,1.041,1.041,0,0,0,1.929-.785,11.486,11.486,0,1,1,19.858,2.53l-5.663,7.809a12.38,12.38,0,0,0-2.091,4.681l-.424,1.962a1.062,1.062,0,0,1-2.077,0l-.424-1.961a12.38,12.38,0,0,0-2.091-4.681l-4.893-6.747a1.041,1.041,0,1,0-1.686,1.223l4.893,6.747a10.308,10.308,0,0,1,1.742,3.9l.424,1.961a3.145,3.145,0,0,0,6.148,0l.424-1.962a10.309,10.309,0,0,1,1.741-3.9l5.656-7.8a13.536,13.536,0,0,0-1.275-17.632Z" transform="translate(-259.805 -206.359)" fill="#e3e4e4"/>
    <path id="Path_31" data-name="Path 31" d="M50.4,49.4a5.924,5.924,0,0,0,5.378-8.407,1.041,1.041,0,0,0-1.891.874A3.84,3.84,0,1,1,50.4,39.631a3.906,3.906,0,0,1,.587.044,1.041,1.041,0,0,0,.315-2.059,5.988,5.988,0,0,0-.9-.068,5.924,5.924,0,0,0,0,11.848Z" transform="translate(-31.955 -32.338)" fill="#e3e4e4"/>
    <path id="Path_32" data-name="Path 32" d="M14.086,24.36a8.045,8.045,0,0,1,1.36,3.043l.339,1.571a2.726,2.726,0,0,0,5.329,0l.339-1.571a8.046,8.046,0,0,1,1.36-3.043l4.527-6.243a11.072,11.072,0,1,0-19.962-6.6,10.971,10.971,0,0,0,2.174,6.589ZM12.169,5.088A8.92,8.92,0,0,1,18.448,2.53l.219,0a8.989,8.989,0,0,1,6.994,14.353l-4.534,6.252a10.119,10.119,0,0,0-1.709,3.826l-.339,1.571a.643.643,0,0,1-1.257,0l-.339-1.571a10.117,10.117,0,0,0-1.709-3.826L11.23,16.875a8.989,8.989,0,0,1,.938-11.787Z" transform="translate(0 -0.384)" fill="#e3e4e4"/>
    <path id="Path_33" data-name="Path 33" d="M392.919,42.544a1.041,1.041,0,1,0,1.538,1.4l.018-.019c.025-.027.05-.054.073-.081a5.016,5.016,0,0,0-7.565-6.588,1.041,1.041,0,1,0,1.567,1.372,2.933,2.933,0,0,1,4.423,3.853Z" transform="translate(-326.711 -30.616)" fill="#e3e4e4"/>
    <path id="Path_34" data-name="Path 34" d="M356.708,5.606a1.041,1.041,0,0,0,1.453-.238,7.866,7.866,0,1,1,12.7,9.279l-1.077,1.485a1.041,1.041,0,1,0,1.686,1.223l1.069-1.475A9.948,9.948,0,1,0,356.469,4.152a1.163,1.163,0,0,0,.073,1.3,1.036,1.036,0,0,0,.166.148Z" transform="translate(-300.509 0)" fill="#e3e4e4"/>
    <path id="Path_35" data-name="Path 35" d="M66.629,87.677a1.04,1.04,0,0,0-1.818-.7A21.936,21.936,0,0,1,62.759,89a29.068,29.068,0,0,1-4.5,1.163,43.191,43.191,0,0,0,2.919-10.1,1.041,1.041,0,1,0-2.049-.375,36.209,36.209,0,0,1-3.381,10.8q-1.3.114-2.63.116c-.887,0-1.764-.041-2.632-.118-1.534-2.654-2.8-7.094-3.664-12.525,2.061.167,4.167.254,6.3.254,1.972,0,3.962-.075,5.916-.222a1.041,1.041,0,0,0-.156-2.077c-1.9.143-3.84.216-5.759.216-2.239,0-4.449-.1-6.6-.287a112.533,112.533,0,0,1-.933-13.768H62.467a1.041,1.041,0,0,0,.27-2.046,115.117,115.117,0,0,0-.879-13.586,62.551,62.551,0,0,1,9.8,1.915,45.93,45.93,0,0,1,1.382,7.2,1.042,1.042,0,0,0,1.034.927,1.057,1.057,0,0,0,.116-.006,1.041,1.041,0,0,0,.921-1.15A48.327,48.327,0,0,0,74,49.1a34.65,34.65,0,0,1,7.446,3.461,29.428,29.428,0,0,1,1.077,5.4,1.041,1.041,0,0,0,1.035.934,1.031,1.031,0,0,0,.109-.006,1.042,1.042,0,0,0,.928-1.143A31.678,31.678,0,0,0,43.69,30.818a1.042,1.042,0,1,0,.62,1.989,29.355,29.355,0,0,1,3.666-.887,48.039,48.039,0,0,0-3.3,12.4c-1.186.13-2.36.284-3.516.47a1.041,1.041,0,0,0,.33,2.057q1.426-.229,2.887-.4-.25,1.95-.433,4.033a1.041,1.041,0,0,0,.946,1.128c.031,0,.062,0,.092,0a1.041,1.041,0,0,0,1.036-.951c.134-1.526.3-3.005.49-4.429,2.168-.189,4.377-.287,6.612-.287s4.449.1,6.6.287A112.534,112.534,0,0,1,60.653,60H45.58c.014-1.659.058-3.316.137-4.94a1.041,1.041,0,0,0-2.08-.1c-.08,1.658-.126,3.349-.139,5.041H32.9c.007-.3.016-.612.029-.936a1.041,1.041,0,1,0-2.081-.082c-.014.352-.024.689-.031,1.017H23.567a29.5,29.5,0,0,1,1.418-8.083A1.041,1.041,0,0,0,23,51.274,31.664,31.664,0,0,0,66.761,89.607a1.04,1.04,0,0,0-.132-1.93ZM61.559,44.323a48.05,48.05,0,0,0-3.3-12.4,29.488,29.488,0,0,1,4.511,1.167,27.358,27.358,0,0,1,6.653,9.162,37.7,37.7,0,0,1,1.511,3.767A66.553,66.553,0,0,0,61.559,44.323Zm18.8,5.208a42,42,0,0,0-7.02-2.832,40.729,40.729,0,0,0-2.03-5.329,32.954,32.954,0,0,0-3.651-6.077,29.646,29.646,0,0,1,12.7,14.238ZM53.116,43.863c-2.126,0-4.231.086-6.3.252.875-5.47,2.164-9.914,3.672-12.526q1.307-.115,2.629-.117t2.631.118c1.534,2.655,2.8,7.095,3.665,12.527C57.35,43.951,55.245,43.863,53.116,43.863Zm-5.141,46.3a29.314,29.314,0,0,1-4.515-1.172A29.543,29.543,0,0,1,35.3,76.065a66.6,66.6,0,0,0,9.375,1.695A48.054,48.054,0,0,0,47.974,90.161Zm-3.6-14.529a62.537,62.537,0,0,1-9.8-1.916A47.478,47.478,0,0,1,32.9,62.083H43.5a115.142,115.142,0,0,0,.879,13.549ZM23.568,62.083h7.253a49.845,49.845,0,0,0,1.414,10.906,34.669,34.669,0,0,1-7.443-3.458A29.441,29.441,0,0,1,23.568,62.083Zm2.314,10.474A42.03,42.03,0,0,0,32.9,75.383a36.3,36.3,0,0,0,5.655,11.383A29.753,29.753,0,0,1,25.882,72.557Z" transform="translate(-12.133 -25.312)" fill="#e3e4e4"/>
  </g>
</svg>
