<svg xmlns="http://www.w3.org/2000/svg" width="90.55" height="71.815" viewBox="0 0 90.55 71.815">
  <g id="employee" transform="translate(-1.5 -4.5)">
    <path id="Path_36" data-name="Path 36" d="M40.285,32.488a1.559,1.559,0,0,0-1.331,1.759,3.889,3.889,0,0,1,.015.506,16.934,16.934,0,0,1-3.215,9.88,16.373,16.373,0,0,0-8.264-6.644,9.055,9.055,0,1,0-11.389,0,16.373,16.373,0,0,0-8.266,6.647A16.995,16.995,0,0,1,9.664,22.611a16.716,16.716,0,0,1,10.781-4.973,1.561,1.561,0,0,0,1.441-1.673,1.542,1.542,0,0,0-1.673-1.441A20.27,20.27,0,0,0,6.941,48.554,20.294,20.294,0,0,0,21.8,55.049,20.047,20.047,0,0,0,36.139,49.1c.186-.186.37-.375.5-.534a20.039,20.039,0,0,0,5.452-13.81,6.98,6.98,0,0,0-.046-.933A1.566,1.566,0,0,0,40.285,32.488ZM15.863,31.006A5.932,5.932,0,1,1,21.8,36.94,5.939,5.939,0,0,1,15.863,31.006ZM10,47.183a13.323,13.323,0,0,1,23.58,0A16.931,16.931,0,0,1,21.8,51.927,17.15,17.15,0,0,1,10,47.183Z" transform="translate(0 21.266)" fill="#e4e3e4" fill-rule="evenodd"/>
    <path id="Path_37" data-name="Path 37" d="M52.145,20.414a20.071,20.071,0,0,0-12.767-5.89,1.561,1.561,0,1,0-.232,3.113,16.72,16.72,0,0,1,10.791,4.985,16.981,16.981,0,0,1,1.815,22.009,16.371,16.371,0,0,0-8.262-6.643,9.056,9.056,0,1,0-11.391,0,16.37,16.37,0,0,0-8.264,6.645,16.919,16.919,0,0,1-3.214-9.881,3.889,3.889,0,0,1,.015-.506,1.558,1.558,0,0,0-1.333-1.759,1.6,1.6,0,0,0-1.759,1.333,6.98,6.98,0,0,0-.046.933,20.021,20.021,0,0,0,5.443,13.8,20.277,20.277,0,0,0,14.853,6.5A20.047,20.047,0,0,0,52.139,49.1c.186-.186.372-.378.5-.534a20.24,20.24,0,0,0-.494-28.149ZM31.862,31.005A5.934,5.934,0,1,1,37.8,36.939,5.94,5.94,0,0,1,31.862,31.005ZM26.007,47.182a13.319,13.319,0,0,1,23.576,0A16.92,16.92,0,0,1,37.8,51.926,17.142,17.142,0,0,1,26.007,47.182Z" transform="translate(33.959 21.267)" fill="#e4e3e4" fill-rule="evenodd"/>
    <path id="Path_38" data-name="Path 38" d="M55.336,27.918A23.393,23.393,0,0,0,52.5,16.685,1.561,1.561,0,0,0,49.75,18.17a20.359,20.359,0,0,1-1.228,21.4A23.049,23.049,0,0,0,38.4,33.545a10.929,10.929,0,1,0-12.963,0,23.059,23.059,0,0,0-10.116,6.017A20.308,20.308,0,0,1,41.669,10.089a1.561,1.561,0,1,0,1.482-2.747A23.449,23.449,0,1,0,55.336,27.918ZM24.112,24.8A7.806,7.806,0,1,1,31.918,32.6,7.815,7.815,0,0,1,24.112,24.8Zm7.806,23.418a20.223,20.223,0,0,1-14.595-6.227A20.135,20.135,0,0,1,46.52,42c-.086.089-.161.187-.249.275A20.171,20.171,0,0,1,31.918,48.214Z" transform="translate(14.857)" fill="#e4e3e4" fill-rule="evenodd"/>
    <path id="Path_39" data-name="Path 39" d="M7.165,11.287l.457-.457V25.8a1.561,1.561,0,0,0,3.122,0V10.83l.457.457A1.561,1.561,0,0,0,13.41,9.08L10.287,5.957a1.561,1.561,0,0,0-2.208,0L4.957,9.08a1.561,1.561,0,0,0,2.208,2.208Z" transform="translate(6.367 2.122)" fill="#e4e3e4" fill-rule="evenodd"/>
    <path id="Path_40" data-name="Path 40" d="M27.165,11.287l.457-.457V25.8a1.561,1.561,0,0,0,3.122,0V10.83l.457.457A1.561,1.561,0,0,0,33.41,9.08L30.287,5.957a1.561,1.561,0,0,0-2.208,0L24.957,9.08a1.561,1.561,0,0,0,2.208,2.208Z" transform="translate(48.815 2.122)" fill="#e4e3e4" fill-rule="evenodd"/>
    <path id="Path_41" data-name="Path 41" d="M23.115,9.215a1.561,1.561,0,1,0-2.208,0A1.561,1.561,0,0,0,23.115,9.215Z" transform="translate(40.219 4.351)" fill="#e4e3e4" fill-rule="evenodd"/>
  </g>
</svg>
