<svg xmlns="http://www.w3.org/2000/svg" width="170" height="153.718" viewBox="0 0 170 153.718">
  <g id="growth" transform="translate(0 -24.47)">
    <path id="Path_42" data-name="Path 42" d="M167.5,295.11H156.037V248.417a2.5,2.5,0,0,0-4.99,0V295.11H131.615V212.981a.833.833,0,0,1,.832-.832h17.769a.833.833,0,0,1,.832.832v25.456a2.5,2.5,0,0,0,4.99,0V212.981a5.829,5.829,0,0,0-5.822-5.822H132.446a5.829,5.829,0,0,0-5.822,5.822V295.11h-8.141V231.139a5.829,5.829,0,0,0-5.822-5.822H94.892a5.829,5.829,0,0,0-5.822,5.822V295.11H80.929V249.3a5.829,5.829,0,0,0-5.822-5.822H57.338a5.829,5.829,0,0,0-5.822,5.822v21.818a2.5,2.5,0,1,0,4.99,0V249.3a.833.833,0,0,1,.832-.832H75.107a.832.832,0,0,1,.832.832V295.11H56.507V281.1a2.5,2.5,0,1,0-4.99,0V295.11H43.375V267.456a5.829,5.829,0,0,0-5.822-5.822H19.785a5.829,5.829,0,0,0-5.822,5.822V295.11H2.5a2.5,2.5,0,0,0,0,4.99H167.5a2.5,2.5,0,0,0,0-4.99ZM94.061,231.139a.833.833,0,0,1,.832-.832h17.769a.833.833,0,0,1,.832.832V295.11H94.061ZM18.953,267.456a.833.833,0,0,1,.832-.832H37.554a.833.833,0,0,1,.832.832V295.11H18.953Z" transform="translate(0 -121.912)" fill="#e4e4e4"/>
    <path id="Path_43" data-name="Path 43" d="M68.874,109.935c.137,0,.275,0,.413-.014a160.424,160.424,0,0,0,51.431-11.936,126.126,126.126,0,0,0,52.141-40.091l8.41,5.847a2.512,2.512,0,0,0,3.907-2.3l-3.485-34.721a2.511,2.511,0,0,0-3.112-2.165l-33.793,8.8a2.512,2.512,0,0,0-.8,4.463l8.486,5.9a85.476,85.476,0,0,1-11.895,14.347,2.495,2.495,0,1,0,3.514,3.543c10-9.919,13.775-17.171,13.93-17.475a2.5,2.5,0,0,0-.8-3.187l-5.938-4.129,25.725-6.7,2.653,26.431-5.943-4.132a2.5,2.5,0,0,0-3.439.576,121.089,121.089,0,0,1-51.511,40.393,158.6,158.6,0,0,1-49.835,11.555c-.717.184-.934-1.133-.22-1.209,27.338-8.436,50.169-20.3,67.859-35.251a2.495,2.495,0,0,0-3.221-3.811C116.186,79.19,93.944,90.727,67.251,98.965a5.609,5.609,0,0,0,1.623,10.97Z" transform="translate(-42.23)" fill="#e4e4e4"/>
  </g>
</svg>
