<svg xmlns="http://www.w3.org/2000/svg" width="365.021" height="412" viewBox="0 0 365.021 412">
  <g id="Group_34" data-name="Group 34" opacity="0.162">
    <path id="Path_1" data-name="Path 1" d="M791.338,365.934l103.309.245V314.571H842.7Z" transform="translate(-529.626 -314.571)" fill="#fff" fill-rule="evenodd"/>
    <path id="Path_2" data-name="Path 2" d="M888.158,465.123l51.466-51.465v-2.812l-51.466-.122Z" transform="translate(-574.602 -359.238)" fill="#fff" fill-rule="evenodd"/>
    <path id="Path_3" data-name="Path 3" d="M616.134,442.341V551.633c0,69.081-43.868,122.707-130.527,122.707S355.084,620.714,355.084,551.633V365.44l187.374.443,51.312-51.312H302.578v246.2c0,91.187,68.637,165.8,183.029,165.8S667.6,651.959,667.6,560.772v-169.9Z" transform="translate(-302.578 -314.571)" fill="#fff" fill-rule="evenodd"/>
    <g id="Group_1" data-name="Group 1" transform="translate(105.055 102.06)">
      <path id="Path_4" data-name="Path 4" d="M602.726,699.711l0,4.519c0,23.86-10.809,34.169-29.9,34.169-16.126,0-28.962-7.659-42.127-20.619l-31.925,31.811c15.8,16.79,39.495,30.929,75.369,30.929,25.014,0,45.748-6.48,59.9-19.145,13.824-12.372,20.682-30.635,20.682-55.082V647.712Z" transform="translate(-498.773 -571.388)" fill="#fff"/>
      <path id="Path_5" data-name="Path 5" d="M647.847,611.6l51.987-51.987V505.173h-52l-51.953,52h52Z" transform="translate(-543.884 -505.173)" fill="#fff"/>
    </g>
  </g>
</svg>
