<svg id="Group_13" data-name="Group 13" xmlns="http://www.w3.org/2000/svg" width="142.376" height="160.7" viewBox="0 0 142.376 160.7">
  <path id="Path_1" data-name="Path 1" d="M791.337,334.6l40.3.1v-20.13H811.372Z" transform="translate(-689.257 -314.571)" fill="#fff" fill-rule="evenodd"/>
  <path id="Path_2" data-name="Path 2" d="M888.158,431.943l20.074-20.074v-1.1l-20.074-.047Z" transform="translate(-765.856 -390.642)" fill="#fff" fill-rule="evenodd"/>
  <path id="Path_3" data-name="Path 3" d="M424.88,364.407v42.629c0,26.945-17.11,47.862-50.912,47.862s-50.91-20.917-50.91-47.862V334.412l73.085.173,20.014-20.014H302.578V410.6c0,35.567,26.772,64.67,71.39,64.67s70.986-29.1,70.986-64.67V344.333Z" transform="translate(-302.578 -314.571)" fill="#fff" fill-rule="evenodd"/>
  <g id="Group_1" data-name="Group 1" transform="translate(40.976 39.808)">
    <path id="Path_4" data-name="Path 4" d="M539.319,667.994v1.763c0,9.306-4.216,13.328-11.662,13.328-6.29,0-11.3-2.988-16.432-8.042L498.773,687.45c6.162,6.549,15.4,12.064,29.4,12.064,9.757,0,17.844-2.528,23.364-7.468,5.392-4.826,8.067-11.949,8.067-21.485V647.712Z" transform="translate(-498.773 -617.942)" fill="#fff"/>
    <path id="Path_5" data-name="Path 5" d="M616.15,546.685l20.278-20.278V505.173H616.145L595.88,525.454h20.281Z" transform="translate(-575.599 -505.173)" fill="#fff"/>
  </g>
</svg>
