<svg xmlns="http://www.w3.org/2000/svg" width="32" height="32" viewBox="0 0 32 32">
  <g id="Group_59" data-name="Group 59" transform="translate(-179 -3504)">
    <rect id="Rectangle_111" data-name="Rectangle 111" width="32" height="32" transform="translate(179 3504)" fill="#ffffff"/>
    <g id="instagram_7_" data-name="instagram (7)" transform="translate(185.639 3510.697)">
      <path id="Path_1132" data-name="Path 1132" d="M19.125,5.506a6.843,6.843,0,0,0-.435-2.272,4.8,4.8,0,0,0-2.74-2.74A6.86,6.86,0,0,0,13.678.059C12.675.011,12.357,0,9.814,0S6.954.011,5.955.055A6.845,6.845,0,0,0,3.683.49,4.569,4.569,0,0,0,2.022,1.573,4.611,4.611,0,0,0,.943,3.23,6.861,6.861,0,0,0,.508,5.5C.46,6.5.449,6.823.449,9.365S.46,12.226.5,13.225A6.842,6.842,0,0,0,.94,15.5a4.8,4.8,0,0,0,2.74,2.74,6.861,6.861,0,0,0,2.272.435c1,.044,1.317.055,3.859.055s2.861-.011,3.859-.055a6.841,6.841,0,0,0,2.272-.435,4.79,4.79,0,0,0,2.74-2.74,6.866,6.866,0,0,0,.435-2.272c.044-1,.055-1.317.055-3.859S19.169,6.5,19.125,5.506Zm-1.686,7.646a5.133,5.133,0,0,1-.322,1.738,3.106,3.106,0,0,1-1.778,1.778,5.151,5.151,0,0,1-1.738.322c-.988.044-1.284.055-3.783.055s-2.8-.011-3.783-.055A5.13,5.13,0,0,1,4.3,16.667a2.882,2.882,0,0,1-1.075-.7,2.911,2.911,0,0,1-.7-1.075A5.152,5.152,0,0,1,2.2,13.155c-.044-.988-.055-1.284-.055-3.783s.011-2.8.055-3.783a5.13,5.13,0,0,1,.322-1.738,2.846,2.846,0,0,1,.7-1.076,2.907,2.907,0,0,1,1.075-.7,5.155,5.155,0,0,1,1.738-.322C7.027,1.712,7.323,1.7,9.822,1.7s2.8.011,3.783.055a5.133,5.133,0,0,1,1.738.322,2.88,2.88,0,0,1,1.075.7,2.911,2.911,0,0,1,.7,1.076,5.154,5.154,0,0,1,.322,1.738c.044.988.055,1.284.055,3.783S17.482,12.164,17.438,13.152Zm0,0" transform="translate(-0.449 0)"/>
      <path id="Path_1133" data-name="Path 1133" d="M129.76,124.5a4.811,4.811,0,1,0,4.811,4.811A4.812,4.812,0,0,0,129.76,124.5Zm0,7.931a3.121,3.121,0,1,1,3.121-3.121A3.121,3.121,0,0,1,129.76,132.431Zm0,0" transform="translate(-120.395 -119.945)"/>
      <path id="Path_1134" data-name="Path 1134" d="M364.7,89.725a1.123,1.123,0,1,1-1.123-1.123A1.123,1.123,0,0,1,364.7,89.725Zm0,0" transform="translate(-349.206 -85.36)"/>
    </g>
  </g>
</svg>
