<svg id="Layer_2" data-name="Layer 2" xmlns="http://www.w3.org/2000/svg" width="39.49" height="39.489" viewBox="0 0 39.49 39.489">
  <g id="whatsapp">
    <path id="Path_40561" data-name="Path 40561" d="M61.688,47.69l-.049-.049a9.585,9.585,0,0,0-15.32,11.127l.422.83-.785,3.814-.011.049,3.79-.9L50.6,63A9.579,9.579,0,0,0,61.69,47.7ZM61.3,58.4a3.977,3.977,0,0,1-2.12,1.847c-1.615.393-4.095.013-7.18-2.861l-.038-.036c-2.713-2.513-3.417-4.606-3.247-6.267a3.973,3.973,0,0,1,1.541-2.354.884.884,0,0,1,1.38.316l1,2.257a.873.873,0,0,1-.11.9l-.5.655a.871.871,0,0,0-.079.958,9.555,9.555,0,0,0,1.712,1.9,10.123,10.123,0,0,0,2.372,1.7.864.864,0,0,0,.94-.2l.586-.59a.9.9,0,0,1,.875-.224l2.372.673a.9.9,0,0,1,.5,1.328Z" transform="translate(-35.115 -34.773)" fill="#fff"/>
    <path id="Path_40562" data-name="Path 40562" d="M34.1,0H5.385A5.385,5.385,0,0,0,0,5.385V34.1A5.385,5.385,0,0,0,5.385,39.49H34.1A5.385,5.385,0,0,0,39.49,34.1V5.385A5.385,5.385,0,0,0,34.1,0ZM31.98,20.037a12.244,12.244,0,0,1-17.685,10.57L8.113,32.072a.478.478,0,0,1-.5-.2.469.469,0,0,1-.074-.366l1.3-6.307A12.242,12.242,0,1,1,31.98,20.043Z" fill="#fff"/>
  </g>
</svg>
