<svg id="Layer_2" data-name="Layer 2" xmlns="http://www.w3.org/2000/svg" width="39.49" height="39.489" viewBox="0 0 39.49 39.489">
  <g id="linkedin">
    <path id="icon" d="M34.1,0H5.385A5.385,5.385,0,0,0,0,5.385V34.1A5.385,5.385,0,0,0,5.385,39.49H34.1A5.385,5.385,0,0,0,39.49,34.1V5.385A5.385,5.385,0,0,0,34.1,0ZM13.462,31.251a.832.832,0,0,1-.832.835H9.083a.832.832,0,0,1-.835-.835V16.379a.835.835,0,0,1,.835-.835H12.63a.835.835,0,0,1,.832.835ZM10.855,14.136a3.366,3.366,0,1,1,3.366-3.366,3.366,3.366,0,0,1-3.366,3.366ZM32,31.309a.765.765,0,0,1-.767.767H27.423a.765.765,0,0,1-.767-.767V24.342c0-1.041.305-4.559-2.722-4.559-2.345,0-2.823,2.408-2.917,3.489v8.046a.767.767,0,0,1-.756.767H16.577a.765.765,0,0,1-.765-.767v-15a.765.765,0,0,1,.765-.767h3.684a.767.767,0,0,1,.767.767v1.3C21.9,16.3,23.189,15.3,25.942,15.3c6.1,0,6.058,5.695,6.058,8.822Z" fill="#fff"/>
  </g>
</svg>
