<svg id="twitter" xmlns="http://www.w3.org/2000/svg" width="39.49" height="39.489" viewBox="0 0 39.49 39.489">
  <path id="Path_40559" data-name="Path 40559" d="M307.268,252.692l8.887,12.711h-3.647l-7.252-10.372h0l-1.065-1.523L295.72,241.39h3.647l6.836,9.779Z" transform="translate(-286.203 -233.621)" fill="#fff"/>
  <path id="Path_40560" data-name="Path 40560" d="M35.223,0H4.267A4.267,4.267,0,0,0,0,4.267V35.223A4.267,4.267,0,0,0,4.267,39.49H35.223a4.267,4.267,0,0,0,4.267-4.267V4.267A4.267,4.267,0,0,0,35.223,0ZM25.188,33.488,17.85,22.808,8.662,33.488H6.287L16.8,21.274,6.287,5.981H14.3l6.949,10.113,8.7-10.113h2.375L22.305,17.629h0L33.2,33.488Z" transform="translate(0)" fill="#fff"/>
</svg>
