<svg xmlns="http://www.w3.org/2000/svg" width="70.337" height="71.056" viewBox="0 0 70.337 71.056">
  <g id="best-customer-experience" transform="translate(-9.117 -6.5)">
    <path id="Path_22" data-name="Path 22" d="M108.78,140.99a10.1,10.1,0,1,0,2.742-3.472" transform="translate(-84.092 -110.01)" fill="none" stroke="#dddcdd" stroke-linecap="round" stroke-linejoin="round" stroke-width="2"/>
    <path id="Path_23" data-name="Path 23" d="M70.927,287.731a21.027,21.027,0,0,0-15.851-7.2H53.091a18.575,18.575,0,0,0-18.148,14.617h0a4.061,4.061,0,0,0,3.968,4.927H57.172" transform="translate(-21.286 -235.091)" fill="none" stroke="#dddcdd" stroke-linecap="round" stroke-linejoin="round" stroke-width="2"/>
    <path id="Path_24" data-name="Path 24" d="M142.059,7.846l1.784,3a.706.706,0,0,0,.451.328l3.406.77a.706.706,0,0,1,.375,1.155l-2.3,2.625a.707.707,0,0,0-.172.531l.32,3.477a.706.706,0,0,1-.982.714l-3.208-1.379a.707.707,0,0,0-.558,0l-3.208,1.379a.706.706,0,0,1-.982-.714l.32-3.477a.707.707,0,0,0-.172-.531l-2.3-2.625a.706.706,0,0,1,.375-1.155l3.406-.77a.707.707,0,0,0,.451-.328l1.785-3A.706.706,0,0,1,142.059,7.846Z" transform="translate(-107.222 0)" fill="none" stroke="#dddcdd" stroke-linecap="round" stroke-linejoin="round" stroke-width="2"/>
    <path id="Path_25" data-name="Path 25" d="M16.194,24.72l1.462,2.458a.579.579,0,0,0,.37.269l2.789.63a.578.578,0,0,1,.307.946l-1.886,2.15a.578.578,0,0,0-.141.435l.262,2.848a.578.578,0,0,1-.8.585l-2.627-1.13a.579.579,0,0,0-.457,0l-2.627,1.13a.578.578,0,0,1-.8-.585l.262-2.848a.579.579,0,0,0-.141-.435l-1.886-2.15a.578.578,0,0,1,.307-.946l2.789-.63a.579.579,0,0,0,.37-.269L15.2,24.72A.578.578,0,0,1,16.194,24.72Z" transform="translate(0 -14.584)" fill="none" stroke="#dddcdd" stroke-linecap="round" stroke-linejoin="round" stroke-width="2"/>
    <path id="Path_26" data-name="Path 26" d="M275.4,24.72l-1.462,2.458a.579.579,0,0,1-.37.269l-2.789.63a.578.578,0,0,0-.307.946l1.886,2.15a.578.578,0,0,1,.141.435l-.262,2.848a.578.578,0,0,0,.8.585l2.627-1.13a.579.579,0,0,1,.457,0l2.627,1.13a.578.578,0,0,0,.8-.585l-.262-2.848a.579.579,0,0,1,.141-.435l1.886-2.15a.578.578,0,0,0-.307-.946l-2.789-.63a.579.579,0,0,1-.37-.269l-1.462-2.458A.578.578,0,0,0,275.4,24.72Z" transform="translate(-224.047 -14.584)" fill="none" stroke="#dddcdd" stroke-linecap="round" stroke-linejoin="round" stroke-width="2"/>
    <path id="Path_27" data-name="Path 27" d="M298.575,254.74h0a2.881,2.881,0,0,0-2.881-2.881l-10.469-.016a2.487,2.487,0,0,1-2.483-2.486v-7.439a4.467,4.467,0,0,0-2.086-3.779,1.847,1.847,0,0,0-2.755,1.045l-4.16,14.206a5.342,5.342,0,0,1-5.127,3.84h-2.846v14.86h4.4a16.989,16.989,0,0,1,6.778,1.367,16.893,16.893,0,0,0,6.736,1.4l12.01.045a2.88,2.88,0,0,0,2.88-2.88h0a2.881,2.881,0,0,0-2.88-2.88,2.88,2.88,0,0,0,2.88-2.88h0a2.88,2.88,0,0,0-2.88-2.88,2.88,2.88,0,0,0,2.88-2.88h0a2.881,2.881,0,0,0-2.88-2.881A2.881,2.881,0,0,0,298.575,254.74Zm0,0h0a2.881,2.881,0,0,0-2.881-2.881l-10.469-.016a2.487,2.487,0,0,1-2.483-2.486v-7.439a4.467,4.467,0,0,0-2.086-3.779,1.847,1.847,0,0,0-2.755,1.045l-4.16,14.206a5.342,5.342,0,0,1-5.127,3.84h-2.846v14.86h4.4a16.989,16.989,0,0,1,6.778,1.367,16.893,16.893,0,0,0,6.736,1.4l12.01.045a2.88,2.88,0,0,0,2.88-2.88h0a2.881,2.881,0,0,0-2.88-2.88,2.88,2.88,0,0,0,2.88-2.88h0a2.88,2.88,0,0,0-2.88-2.88,2.88,2.88,0,0,0,2.88-2.88h0a2.881,2.881,0,0,0-2.88-2.881A2.881,2.881,0,0,0,298.575,254.74Zm-2.881,2.881h-3.421m3.421,5.761h-3.421m3.421,5.761h-3.421" transform="translate(-220.121 -198.347)" fill="none" stroke="#dddcdd" stroke-linecap="round" stroke-linejoin="round" stroke-width="2"/>
    <path id="Path_28" data-name="Path 28" d="M207.747,377.152h-6.892a1.143,1.143,0,0,1-1.143-1.143V358.436a1.143,1.143,0,0,1,1.143-1.143h6.892a1.143,1.143,0,0,1,1.143,1.143v17.573A1.143,1.143,0,0,1,207.747,377.152Z" transform="translate(-163.242 -301.19)" fill="none" stroke="#dddcdd" stroke-linecap="round" stroke-linejoin="round" stroke-width="2"/>
  </g>
</svg>
