<svg xmlns="http://www.w3.org/2000/svg" width="145.802" height="39.177" viewBox="0 0 145.802 39.177">
  <g id="Group_28" data-name="Group 28" transform="translate(-302.578 -314.57)">
    <g id="Group_2" data-name="Group 2" transform="translate(302.578 314.57)">
      <path id="Path_1" data-name="Path 1" d="M791.337,319.455l9.824.023V314.57h-4.939Z" transform="translate(-766.451 -314.57)" fill="#003398" fill-rule="evenodd"/>
      <path id="Path_2" data-name="Path 2" d="M888.158,415.9,893.051,411v-.267l-4.894-.012Z" transform="translate(-858.342 -405.828)" fill="#003398" fill-rule="evenodd"/>
      <path id="Path_3" data-name="Path 3" d="M332.394,326.721v10.392c0,6.569-4.171,11.668-12.412,11.668s-12.411-5.1-12.411-11.668v-17.7l17.817.042,4.879-4.879H302.578v23.411c0,8.671,6.527,15.766,17.4,15.766s17.306-7.095,17.306-15.766V321.827Z" transform="translate(-302.578 -314.571)" fill="#003398" fill-rule="evenodd"/>
      <g id="Group_1" data-name="Group 1" transform="translate(9.99 9.705)">
        <path id="Path_4" data-name="Path 4" d="M508.658,652.656v.43c0,2.269-1.028,3.249-2.843,3.249a5.607,5.607,0,0,1-4.006-1.961l-3.036,3.025a9.394,9.394,0,0,0,7.167,2.941,8.383,8.383,0,0,0,5.7-1.82,6.652,6.652,0,0,0,1.967-5.238v-5.57Z" transform="translate(-498.773 -640.454)" fill="#900"/>
        <path id="Path_5" data-name="Path 5" d="M600.822,515.293l4.943-4.943v-5.177H600.82l-4.94,4.944h4.944Z" transform="translate(-590.936 -505.173)" fill="#900"/>
      </g>
    </g>
    <g id="Group_5" data-name="Group 5" transform="translate(350.259 314.57)">
      <g id="Group_3" data-name="Group 3" transform="translate(0.192 28.869)">
        <path id="Path_6" data-name="Path 6" d="M1122.191,841.384h5.5v.99h-2.2v3.961h-1.1v-3.961h-2.2Z" transform="translate(-1122.191 -841.384)" fill="#003398"/>
        <path id="Path_7" data-name="Path 7" d="M1230.5,841.384v.99H1225v-.99Zm0,1.981v.99H1225v-.99Zm0,1.98v.99H1225v-.99Z" transform="translate(-1216.254 -841.384)" fill="#003398"/>
        <path id="Path_8" data-name="Path 8" d="M1327.815,845.345v-2.971q0-.99,1.1-.99h4.4v.99h-4.4v2.971h4.4v.99h-4.4Q1327.815,846.335,1327.815,845.345Z" transform="translate(-1310.317 -841.384)" fill="#003398"/>
        <path id="Path_9" data-name="Path 9" d="M1431.727,841.384v1.981h3.3v-1.981h1.1v4.951h-1.1v-1.98h-3.3v1.98h-1.1v-4.951Z" transform="translate(-1404.379 -841.384)" fill="#003398"/>
        <path id="Path_10" data-name="Path 10" d="M1533.439,846.335v-4.951l4.4,2.971v-2.971h1.1v4.951l-4.4-2.971v2.971Z" transform="translate(-1498.442 -841.384)" fill="#003398"/>
        <path id="Path_11" data-name="Path 11" d="M1637.351,841.384h3.3q1.1,0,1.1.99v2.971q0,.99-1.1.99h-3.3q-1.1,0-1.1-.99v-2.971Q1636.251,841.384,1637.351,841.384Zm0,.99v2.971h3.3v-2.971Z" transform="translate(-1592.505 -841.384)" fill="#003398"/>
        <path id="Path_12" data-name="Path 12" d="M1744.564,846.335h-5.5v-4.951h1.1v3.961h4.4Z" transform="translate(-1686.568 -841.384)" fill="#003398"/>
        <path id="Path_13" data-name="Path 13" d="M1842.975,841.384h3.3q1.1,0,1.1.99v2.971q0,.99-1.1.99h-3.3q-1.1,0-1.1-.99v-2.971Q1841.875,841.384,1842.975,841.384Zm0,.99v2.971h3.3v-2.971Z" transform="translate(-1780.631 -841.384)" fill="#003398"/>
        <path id="Path_14" data-name="Path 14" d="M1950.188,846.335h-4.4q-1.1,0-1.1-.99v-2.971q0-.99,1.1-.99h4.4v.99h-4.4v2.971h3.3v-.99h-1.65v-.99h2.75Z" transform="translate(-1874.694 -841.384)" fill="#003398"/>
        <path id="Path_15" data-name="Path 15" d="M2048.6,841.384v4.951h-1.1v-4.951Z" transform="translate(-1968.757 -841.384)" fill="#003398"/>
        <path id="Path_16" data-name="Path 16" d="M2104.1,841.384v.99h-5.5v-.99Zm0,1.981v.99h-5.5v-.99Zm0,1.98v.99h-5.5v-.99Z" transform="translate(-2015.504 -841.384)" fill="#003398"/>
        <path id="Path_17" data-name="Path 17" d="M2206.908,842.374h-4.4v.99h3.3q1.1,0,1.1.99v.99q0,.99-1.1.99h-4.4v-.99h4.4v-.99h-3.3q-1.1,0-1.1-.99v-.99q0-.99,1.1-.99h4.4Z" transform="translate(-2109.567 -841.384)" fill="#003398"/>
      </g>
      <g id="Group_4" data-name="Group 4" transform="translate(0 0)">
        <path id="Path_18" data-name="Path 18" d="M1119.931,522.5l3.627-3.635a6.684,6.684,0,0,0,4.786,2.356c2.169,0,3.515-1.178,3.515-3.9V502.141h5.908v15.414a8.073,8.073,0,0,1-2.468,6.293,9.979,9.979,0,0,1-6.806,2.187A11.194,11.194,0,0,1,1119.931,522.5Z" transform="translate(-1119.931 -502.141)" fill="#900"/>
        <path id="Path_19" data-name="Path 19" d="M1398.522,502.141h5.31l12.265,14.505V502.141h5.684V525.7h-4.9l-12.677-14.976V525.7h-5.684Z" transform="translate(-1374.814 -502.141)" fill="#003398"/>
        <path id="Path_20" data-name="Path 20" d="M1745.661,502.141h19.744v4.611h-14.023v4.779h12.34v4.611h-12.34v4.947h14.21V525.7h-19.932Z" transform="translate(-1692.412 -502.141)" fill="#003398"/>
        <path id="Path_21" data-name="Path 21" d="M2026.065,506.92H2018.1v-4.779h21.689v4.779h-7.965V525.7h-5.759Z" transform="translate(-1941.667 -502.141)" fill="#003398"/>
      </g>
    </g>
  </g>
</svg>
