<svg xmlns="http://www.w3.org/2000/svg" width="150.344" height="39.177" viewBox="0 0 150.344 39.177">
  <g id="Group_10" data-name="Group 10" transform="translate(-111.656 92)">
    <g id="Group_2" data-name="Group 2" transform="translate(111.656 -92)">
      <path id="Path_1" data-name="Path 1" d="M791.337,319.455l9.824.023V314.57h-4.939Z" transform="translate(-766.451 -314.57)" fill="#fff" fill-rule="evenodd"/>
      <path id="Path_2" data-name="Path 2" d="M888.158,415.9,893.051,411v-.267l-4.894-.012Z" transform="translate(-858.342 -405.828)" fill="#fff" fill-rule="evenodd"/>
      <path id="Path_3" data-name="Path 3" d="M332.394,326.721v10.392c0,6.569-4.171,11.668-12.412,11.668s-12.411-5.1-12.411-11.668v-17.7l17.817.042,4.879-4.879H302.578v23.411c0,8.671,6.527,15.766,17.4,15.766s17.306-7.095,17.306-15.766V321.827Z" transform="translate(-302.578 -314.571)" fill="#fff" fill-rule="evenodd"/>
      <g id="Group_1" data-name="Group 1" transform="translate(9.99 9.705)">
        <path id="Path_4" data-name="Path 4" d="M508.658,652.657v.43c0,2.269-1.028,3.249-2.843,3.249a5.607,5.607,0,0,1-4.006-1.961l-3.036,3.025a9.394,9.394,0,0,0,7.167,2.941,8.383,8.383,0,0,0,5.7-1.82,6.652,6.652,0,0,0,1.967-5.238v-5.57Z" transform="translate(-498.773 -640.454)" fill="#fff"/>
        <path id="Path_5" data-name="Path 5" d="M600.822,515.293l4.943-4.943v-5.177H600.82l-4.94,4.944h4.944Z" transform="translate(-590.936 -505.173)" fill="#fff"/>
      </g>
    </g>
    <g id="Group_5" data-name="Group 5" transform="translate(159.977 -90)">
      <g id="Group_3" data-name="Group 3" transform="translate(0.2 30.017)">
        <path id="Path_6" data-name="Path 6" d="M1122.191,841.384h5.72v1.03h-2.288v4.118h-1.144v-4.118h-2.288Z" transform="translate(-1122.191 -841.384)" fill="#fff"/>
        <path id="Path_7" data-name="Path 7" d="M1230.723,841.384v1.03H1225v-1.03Zm0,2.059v1.03H1225v-1.03Zm0,2.059v1.03H1225V845.5Z" transform="translate(-1215.906 -841.384)" fill="#fff"/>
        <path id="Path_8" data-name="Path 8" d="M1327.815,845.5v-3.089q0-1.03,1.144-1.03h4.576v1.03h-4.576V845.5h4.576v1.03h-4.576Q1327.815,846.532,1327.815,845.5Z" transform="translate(-1309.621 -841.384)" fill="#fff"/>
        <path id="Path_9" data-name="Path 9" d="M1431.771,841.384v2.059h3.432v-2.059h1.144v5.148H1435.2v-2.059h-3.432v2.059h-1.144v-5.148Z" transform="translate(-1403.336 -841.384)" fill="#fff"/>
        <path id="Path_10" data-name="Path 10" d="M1533.439,846.532v-5.148l4.576,3.089v-3.089h1.144v5.148l-4.576-3.089v3.089Z" transform="translate(-1497.051 -841.384)" fill="#fff"/>
        <path id="Path_11" data-name="Path 11" d="M1637.4,841.384h3.432q1.144,0,1.144,1.03V845.5q0,1.03-1.144,1.03H1637.4q-1.144,0-1.144-1.03v-3.089Q1636.251,841.384,1637.4,841.384Zm0,1.03V845.5h3.432v-3.089Z" transform="translate(-1590.766 -841.384)" fill="#fff"/>
        <path id="Path_12" data-name="Path 12" d="M1744.783,846.532h-5.72v-5.148h1.144V845.5h4.576Z" transform="translate(-1684.481 -841.384)" fill="#fff"/>
        <path id="Path_13" data-name="Path 13" d="M1843.019,841.384h3.432q1.144,0,1.144,1.03V845.5q0,1.03-1.144,1.03h-3.432q-1.144,0-1.144-1.03v-3.089Q1841.875,841.384,1843.019,841.384Zm0,1.03V845.5h3.432v-3.089Z" transform="translate(-1778.196 -841.384)" fill="#fff"/>
        <path id="Path_14" data-name="Path 14" d="M1950.407,846.532h-4.576q-1.144,0-1.144-1.03v-3.089q0-1.03,1.144-1.03h4.576v1.03h-4.576V845.5h3.432v-1.03h-1.716v-1.03h2.86Z" transform="translate(-1871.911 -841.384)" fill="#fff"/>
        <path id="Path_15" data-name="Path 15" d="M2048.643,841.384v5.148H2047.5v-5.148Z" transform="translate(-1965.626 -841.384)" fill="#fff"/>
        <path id="Path_16" data-name="Path 16" d="M2104.315,841.384v1.03h-5.72v-1.03Zm0,2.059v1.03h-5.72v-1.03Zm0,2.059v1.03h-5.72V845.5Z" transform="translate(-2012.201 -841.384)" fill="#fff"/>
        <path id="Path_17" data-name="Path 17" d="M2207.127,842.414h-4.576v1.03h3.432q1.144,0,1.144,1.03v1.03q0,1.03-1.144,1.03h-4.576V845.5h4.576v-1.03h-3.432q-1.144,0-1.144-1.03v-1.03q0-1.03,1.144-1.03h4.576Z" transform="translate(-2105.916 -841.384)" fill="#fff"/>
      </g>
      <g id="Group_4" data-name="Group 4" transform="translate(0 0)">
        <path id="Path_18" data-name="Path 18" d="M1119.931,523.312l3.771-3.779c1.555,1.54,3.072,2.449,4.977,2.449,2.255,0,3.655-1.225,3.655-4.059V502.141h6.143v16.027a8.394,8.394,0,0,1-2.566,6.544,10.377,10.377,0,0,1-7.076,2.274A11.64,11.64,0,0,1,1119.931,523.312Z" transform="translate(-1119.931 -502.141)" fill="#fff"/>
        <path id="Path_19" data-name="Path 19" d="M1398.522,502.141h5.521l12.753,15.082V502.141h5.91v24.495h-5.094l-13.181-15.572v15.572h-5.91Z" transform="translate(-1373.872 -502.141)" fill="#fff"/>
        <path id="Path_20" data-name="Path 20" d="M1745.661,502.141h20.529v4.794h-14.58V511.9h12.831V516.7H1751.61v5.144h14.775v4.794h-20.724Z" transform="translate(-1690.295 -502.141)" fill="#fff"/>
        <path id="Path_21" data-name="Path 21" d="M2026.382,507.11H2018.1v-4.969h22.551v4.969h-8.281v19.526h-5.988Z" transform="translate(-1938.628 -502.141)" fill="#fff"/>
      </g>
    </g>
  </g>
</svg>
